<?xml version="1.0" standalone="no"?>
<!DOCTYPE svg PUBLIC "-//W3C//DTD SVG 1.1//EN" "http://www.w3.org/Graphics/SVG/1.1/DTD/svg11.dtd" >
<svg xmlns="http://www.w3.org/2000/svg" xmlns:xlink="http://www.w3.org/1999/xlink" version="1.1">
<metadata>
Created by FontForge 20170731 at Fri Jul  1 23:55:18 2005
 By Aleksey,,,
Copyright 1990-1993 Bitstream Inc.  All rights reserved.  Copyright (c) ParaType, Inc., 1999. All rights reserved.
</metadata>
<defs>
<font id="BankGothicCMdBT-Medium" horiz-adv-x="500" >
  <font-face 
    font-family="BankGothicCMdBT Medium"
    font-weight="400"
    font-stretch="normal"
    units-per-em="1000"
    panose-1="4 0 5 0 0 0 0 0 0 0"
    ascent="764"
    descent="-236"
    x-height="423"
    cap-height="516"
    bbox="-55 -236 1194 764"
    underline-thickness="50"
    underline-position="-150"
    unicode-range="U+0020-F6D4"
  />
<missing-glyph horiz-adv-x="233" 
 />
    <glyph glyph-name=".notdef" horiz-adv-x="233" 
 />
    <glyph glyph-name=".null" horiz-adv-x="0" 
 />
    <glyph glyph-name="nonmarkingreturn" horiz-adv-x="233" 
 />
    <glyph glyph-name="space" unicode=" " horiz-adv-x="233" 
 />
    <glyph glyph-name="space" unicode="&#xa0;" horiz-adv-x="233" 
 />
    <glyph glyph-name="exclam" unicode="!" horiz-adv-x="384" 
d="M243 143q9 0 17.5 -4.5t8.5 -30.5v-73q0 -17 -4.5 -26t-27.5 -9h-98q-10 0 -17 5.5t-7 31.5v69q0 20 4 28.5t32 8.5h92zM114 516h154l-37 -306h-80z" />
    <glyph glyph-name="quotedbl" unicode="&#x22;" horiz-adv-x="300" 
d="M256 430h-68v271h68v-271zM112 430h-68v271h68v-271z" />
    <glyph glyph-name="numbersign" unicode="#" horiz-adv-x="769" 
d="M346 419l-45 -129h127l45 129h-127zM372 490h125l80 222h80l-78 -222h147l-25 -71h-148l-45 -129h157l-25 -71h-157l-79 -221h-81l79 221h-126l-79 -221h-81l78 221h-151l26 71h151l45 129h-161l25 71h162l79 222h81z" />
    <glyph glyph-name="dollar" unicode="$" horiz-adv-x="774" 
d="M585 76v139h-149v-139h149zM352 440h-143v-135h143v135zM436 440v-135h112q24 0 52.5 -3.5t48.5 -21.5q10 -10 16 -23.5t8.5 -27t3 -26t0.5 -20.5v-61q0 -8 -0.5 -20.5t-3 -26t-8.5 -27t-16 -23.5q-20 -18 -48.5 -21.5t-52.5 -3.5h-112v-130h-84v130h-127
q-33 0 -60.5 4.5t-47.5 29.5q-16 19 -18 37t-2 37v22l100 17v-71h155v139h-107q-25 0 -53 3.5t-47 21.5q-11 10 -16.5 23.5t-8 27t-3 26t-0.5 20.5v57q0 8 0.5 20.5t3 26t8 27t16.5 23.5q19 18 47 21.5t53 3.5h107v102h84v-102h103q24 0 51 -2.5t50 -22.5q19 -16 23 -36
t4 -40v-23l-94 -21v69h-137z" />
    <glyph glyph-name="percent" unicode="%" horiz-adv-x="799" 
d="M111 378q0 -18 7 -33.5t18.5 -27t27 -18.5t33.5 -7t33.5 7t27 18.5t18.5 27t7 33.5t-7 33.5t-18.5 27t-27 18.5t-33.5 7t-33.5 -7t-27 -18.5t-18.5 -27t-7 -33.5zM43 378q0 31 12 59t33 49t49 33.5t60 12.5q31 0 59 -12.5t49 -33.5t33.5 -49t12.5 -59q0 -32 -12.5 -60
t-33.5 -49t-49 -33t-59 -12q-32 0 -60 12t-49 33t-33 49t-12 60zM214 -16h-65l435 548h65zM515 138q0 -18 7 -33.5t18.5 -27t27 -18.5t33.5 -7t33.5 7t27 18.5t18.5 27t7 33.5t-7 33.5t-18.5 27t-27 18.5t-33.5 7t-33.5 -7t-27 -18.5t-18.5 -27t-7 -33.5zM447 138
q0 31 12 59t33 49t49 33.5t60 12.5q31 0 59 -12.5t49 -33.5t33.5 -49t12.5 -59q0 -32 -12.5 -60t-33.5 -49t-49 -33t-59 -12q-32 0 -60 12t-49 33t-33 49t-12 60z" />
    <glyph glyph-name="ampersand" unicode="&#x26;" horiz-adv-x="824" 
d="M430 90l48 41l-155 129l-133 -82v-88h240zM219 0q-24 0 -52.5 3.5t-48.5 21.5q-11 10 -16.5 23.5t-8 27t-3 26t-0.5 20.5v34q0 14 2 29t13 29q9 13 23 22t26 16l105 63q-14 11 -29 30.5t-15 47.5v29q0 16 4 36t22 35q8 6 28.5 14.5t66.5 8.5h126q16 0 41.5 -3t42.5 -17
q20 -16 24.5 -40t4.5 -44v-31l-93 -16v69h-169v-37l243 -202l120 100l68 -59l-119 -99l163 -137h-157l-85 72l-46 -41q-10 -8 -22 -15.5t-23 -10.5t-27.5 -4t-24.5 -1h-184z" />
    <glyph glyph-name="quotesingle" unicode="'" horiz-adv-x="155" 
d="M112 430h-68v271h68v-271z" />
    <glyph glyph-name="parenleft" unicode="(" horiz-adv-x="331" 
d="M276 536q-45 -65 -71 -138t-26 -140t26 -140t71 -138h-107q-29 44 -46 84.5t-26 76.5t-11.5 65.5t-2.5 51.5t2.5 51.5t11.5 65.5t26 76.5t46 84.5h107z" />
    <glyph glyph-name="parenright" unicode=")" horiz-adv-x="331" 
d="M162 536q17 -27 33 -58.5t28 -66.5t19 -74t7 -79q0 -41 -7 -79.5t-19 -73.5t-28 -66.5t-33 -58.5h-107q45 65 71 138t26 140t-26 140t-71 138h107z" />
    <glyph glyph-name="asterisk" unicode="*" 
d="M184 201l-59 43l94 100l-133 26l22 68l123 -59l-14 137h66l-15 -137l123 59l23 -68l-134 -26l94 -100l-58 -43l-66 120z" />
    <glyph glyph-name="plus" unicode="+" horiz-adv-x="833" 
d="M451 332h258v-68h-258v-264h-69v264h-258v68h258v264h69v-264z" />
    <glyph glyph-name="comma" unicode="," horiz-adv-x="331" 
d="M215 155q5 0 10 -0.5t10 -5.5t6 -14.5t1 -16.5v-103l-99 -148h-59l85 152h-57q-5 0 -11.5 2t-9.5 10q-2 4 -2.5 11.5t-0.5 13.5v62q0 14 1.5 20.5t3.5 9.5q5 6 16.5 6.5t19.5 0.5h86z" />
    <glyph glyph-name="hyphen" unicode="-" horiz-adv-x="330" 
d="M48 318h233v-103h-233v103z" />
    <glyph glyph-name="hyphen" unicode="&#xad;" horiz-adv-x="330" 
d="M48 318h233v-103h-233v103z" />
    <glyph glyph-name="period" unicode="." horiz-adv-x="330" 
d="M216 155q5 0 10 -1t10 -6t5.5 -14.5t0.5 -13.5v-85q0 -8 -1 -16.5t-7 -13.5q-4 -3 -10 -4t-14 -1h-98q-5 0 -11 2t-10 10q-2 5 -2.5 12.5t-0.5 12.5v81q0 6 0.5 16.5t7.5 15.5q5 4 12.5 4.5t15.5 0.5h92z" />
    <glyph glyph-name="slash" unicode="/" horiz-adv-x="278" 
d="M236 532h66l-262 -548h-64z" />
    <glyph glyph-name="zero" unicode="0" horiz-adv-x="773" 
d="M569 94v334h-365v-334h365zM94 394q0 10 1 23.5t3.5 27t7.5 26t13 20.5t20 13t24.5 7.5t25.5 3.5t23 1h349q10 0 23 -1t25.5 -3.5t24.5 -7.5t20 -13t13 -20.5t7.5 -26t3.5 -27t1 -23.5v-272q0 -11 -1 -24t-3.5 -26.5t-7.5 -26t-13 -20.5t-20 -13t-24.5 -7.5t-25.5 -3.5
t-23 -1h-349q-10 0 -23 1t-25.5 3.5t-24.5 7.5t-20 13t-13 20.5t-7.5 26t-3.5 26.5t-1 24v272z" />
    <glyph glyph-name="one" unicode="1" horiz-adv-x="368" 
d="M192 418h-110v69l219 33v-520h-109v418z" />
    <glyph glyph-name="two" unicode="2" horiz-adv-x="773" 
d="M140 415q0 6 0.5 16.5t3 22t7.5 23t15 19.5q8 7 27.5 13.5t64.5 6.5h265q45 0 64.5 -6.5t27.5 -13.5q10 -8 15 -19.5t7.5 -23t3 -22t0.5 -16.5v-33q0 -16 -2 -33t-13 -31q-6 -8 -17.5 -17.5t-34.5 -23.5l-301 -183h299v75l94 -27v-41q0 -6 -0.5 -16.5t-3 -22t-7.5 -23
t-15 -19.5q-8 -7 -27.5 -13.5t-64.5 -6.5h-434v47q0 11 2 24t10 26q5 7 13 14.5t16 13.5t15 10t9 6l358 220v67h-293v-106l-104 26v67z" />
    <glyph glyph-name="three" unicode="3" horiz-adv-x="774" 
d="M225 0q-10 0 -22.5 0.5t-25.5 2.5t-25 7t-20 13q-15 15 -18.5 37t-3.5 39v44l106 22v-71h283q7 0 17.5 1t17.5 8q5 5 7.5 13.5t2.5 17.5v48q0 5 -1 15t-9 17q-6 6 -16.5 8t-18.5 2h-179v84h162q9 0 18.5 2t14.5 8q7 7 8 16.5t1 13.5v39q0 5 -1 14.5t-8 16.5q-6 7 -16 8.5
t-18 1.5h-261v-64l-102 19v39q0 17 4.5 38t21.5 36q16 14 40.5 17t39.5 3h292q45 0 64.5 -6.5t27.5 -13.5q18 -15 22 -36.5t4 -41.5v-50q0 -11 -2.5 -29.5t-15.5 -33.5t-37.5 -24t-44.5 -11q22 -1 45.5 -8t37.5 -17q24 -17 30.5 -40t6.5 -40v-66q0 -16 -4 -36.5t-21 -36.5
q-15 -14 -40.5 -20t-45.5 -6h-318z" />
    <glyph glyph-name="four" unicode="4" horiz-adv-x="774" 
d="M472 114h-391v86l387 322h114v-322h125v-86h-125v-120h-110v120zM472 431l-282 -231h282v231z" />
    <glyph glyph-name="five" unicode="5" horiz-adv-x="773" 
d="M159 516h446l-9 -88h-360l-12 -100q42 4 73.5 6.5t56.5 4t43.5 2t35.5 0.5q20 0 48.5 -1.5t59 -8.5t60 -20t50.5 -37q23 -26 30.5 -54.5t7.5 -53.5q0 -43 -16 -77.5t-56 -57.5q-26 -15 -76 -26.5t-141 -11.5q-15 0 -34.5 0.5t-40 1t-40.5 2t-38 3.5q-22 2 -45.5 5.5
t-45.5 8.5l-26 100q33 -6 69.5 -11t72 -8.5t69 -5.5t61.5 -2q31 0 53.5 1.5t38 4t25.5 6t17 6.5q23 11 32.5 27.5t9.5 38.5q0 19 -8 34t-28 26q-12 7 -40.5 13.5t-92.5 6.5q-28 0 -61.5 -1.5t-60.5 -3.5q-39 -3 -80 -7t-77 -9z" />
    <glyph glyph-name="six" unicode="6" horiz-adv-x="773" 
d="M566 183q0 11 -3 24t-16 23q-12 10 -38 12.5t-82 2.5q-20 0 -69.5 -2t-134.5 -10q0 -3 -0.5 -6t-0.5 -6q0 -2 -0.5 -5t-0.5 -5v-8q1 -29 3 -53t13 -36q8 -9 28.5 -14.5t62.5 -5.5h144q38 0 54.5 4.5t24.5 11.5q10 10 12.5 22t2.5 23v28zM567 444q-46 0 -81 -2t-61.5 -5.5
t-46.5 -8t-35 -9.5q-33 -11 -64.5 -35.5t-48.5 -72.5q81 13 133.5 15.5t94.5 2.5t71.5 -2.5t50 -7t34 -11t22.5 -13.5q27 -22 33.5 -49.5t6.5 -49.5v-70q0 -24 -6 -47t-32 -44q-30 -25 -68.5 -30t-70.5 -5h-218q-57 0 -87.5 9.5t-45.5 23.5q-13 12 -20.5 27t-11 32
t-4.5 34.5t-1 32.5v68q0 21 3 47.5t12 54.5t26.5 56.5t46.5 54.5q37 33 76 49t69 23q11 3 30.5 6.5t44.5 6.5t53 4t57 -2l71 -83h-33z" />
    <glyph glyph-name="seven" unicode="7" horiz-adv-x="773" 
d="M556 428h-340v-111l-110 19v180h573v-83l-270 -442h-131z" />
    <glyph glyph-name="eight" unicode="8" horiz-adv-x="774" 
d="M549 516q45 0 64.5 -6.5t27.5 -13.5q20 -17 23 -40.5t3 -40.5v-47q0 -20 -5 -40t-27 -36q-13 -10 -32 -16t-34 -8q20 -2 40 -8.5t34 -16.5q22 -16 28.5 -36t6.5 -42v-54q0 -6 -0.5 -16.5t-3 -22.5t-8 -24.5t-14.5 -21.5q-18 -17 -47.5 -21.5t-52.5 -4.5h-331
q-47 0 -72.5 10t-37 26t-13.5 35.5t-2 39.5v54q0 8 1 19t5.5 22.5t13.5 23t25 20.5q12 7 30.5 11.5t34.5 6.5q-14 2 -33 8t-33 16q-23 17 -28 36.5t-5 39.5v47q0 6 0.5 16.5t3 22t7.5 23t15 19.5q8 7 27.5 13.5t64.5 6.5h324zM267 428q-11 0 -21.5 -1t-18.5 -9t-9 -17.5
t-1 -19.5v-30q0 -6 1 -15.5t9 -17.5t18.5 -9t21.5 -1h241q9 0 20.5 1t19.5 9q7 7 8 17.5t1 19.5v26q0 9 -1 19.5t-8 17.5q-8 8 -19.5 9t-20.5 1h-241zM255 224q-10 0 -20.5 -1t-18.5 -8q-8 -8 -9 -18t-1 -20v-38v-16q0 -7 4.5 -14t14.5 -11t30 -4h264q17 0 26 2t14 6
q7 6 8 17.5t1 19.5v38q0 9 -1 19.5t-8 17.5q-8 8 -19.5 9t-20.5 1h-264z" />
    <glyph glyph-name="nine" unicode="9" horiz-adv-x="774" 
d="M216 72q58 0 99 3t69.5 8t46 11t29.5 11q27 12 52 33.5t42 66.5q-47 -8 -102 -12.5t-127 -4.5q-45 0 -75.5 3t-51 8t-33 11t-19.5 12q-26 21 -32.5 47.5t-6.5 51.5v69q0 13 2 28t8.5 29t19 27t32.5 23q23 11 55 15t59 4h219q57 0 87.5 -9.5t45.5 -23.5q13 -12 20 -27
t11 -32t5 -34.5t1 -32.5v-68q0 -21 -2.5 -47t-12.5 -55t-28.5 -58.5t-49.5 -56.5q-45 -38 -116.5 -61t-166.5 -23h-21t-21 1l-71 83h33zM217 335q0 -11 3 -24.5t17 -24.5q11 -9 32 -12t63 -3q20 0 47.5 1t58 2.5t62 4t60.5 5.5l1 7q1 8 1.5 17.5t0.5 20.5q0 23 -4 46.5
t-17 34.5q-14 13 -39.5 15.5t-47.5 2.5h-143q-33 0 -51.5 -4t-27.5 -13q-11 -11 -13.5 -24t-2.5 -23v-29z" />
    <glyph glyph-name="colon" unicode=":" horiz-adv-x="330" 
d="M216 155q5 0 10 -1t10 -6t5.5 -14.5t0.5 -13.5v-85q0 -8 -1 -16.5t-7 -13.5q-4 -3 -10 -4t-14 -1h-98q-5 0 -11 2t-10 10q-2 5 -2.5 12.5t-0.5 12.5v81q0 6 0.5 16.5t7.5 15.5q5 4 12.5 4.5t15.5 0.5h92zM216 424q5 0 10 -1t10 -6t5.5 -14.5t0.5 -13.5v-85q0 -8 -1 -16.5
t-7 -13.5q-4 -3 -10 -4t-14 -1h-98q-5 0 -11 2t-10 10q-2 5 -2.5 12.5t-0.5 12.5v81q0 6 0.5 16.5t7.5 15.5q5 4 12.5 4.5t15.5 0.5h92z" />
    <glyph glyph-name="semicolon" unicode=";" horiz-adv-x="330" 
d="M216 424q5 0 10 -1t10 -6t5.5 -14.5t0.5 -13.5v-85q0 -8 -1 -16.5t-7 -13.5q-4 -3 -10 -4t-14 -1h-98q-5 0 -11 2t-10 10q-2 5 -2.5 12.5t-0.5 12.5v81q0 6 0.5 16.5t7.5 15.5q5 4 12.5 4.5t15.5 0.5h92zM215 155q5 0 10 -0.5t10 -5.5t6 -14.5t1 -16.5v-103l-99 -148h-59
l85 152h-57q-5 0 -11.5 2t-9.5 10q-2 4 -2.5 11.5t-0.5 13.5v62q0 14 1.5 20.5t3.5 9.5q5 6 16.5 6.5t19.5 0.5h86z" />
    <glyph glyph-name="less" unicode="&#x3c;" horiz-adv-x="833" 
d="M231 298l473 -192v-75l-575 236v63l575 236v-75z" />
    <glyph glyph-name="equal" unicode="=" horiz-adv-x="833" 
d="M709 167h-585v68h585v-68zM709 361h-585v68h585v-68z" />
    <glyph glyph-name="greater" unicode="&#x3e;" horiz-adv-x="833" 
d="M704 267l-575 -236v75l474 192l-474 193v75l575 -236v-63z" />
    <glyph glyph-name="question" unicode="?" horiz-adv-x="662" 
d="M365 143q5 0 10 -1t10 -6t5.5 -14.5t0.5 -13.5v-73q0 -8 -1 -16.5t-7 -13.5q-4 -3 -10 -4t-14 -1h-98q-5 0 -11 2t-10 10q-2 5 -2.5 12.5t-0.5 12.5v69q0 6 0.5 16.5t7.5 15.5q5 4 12.5 4.5t15.5 0.5h92zM264 281l173 105v45h-230v-65l-101 16v28q0 19 4 39.5t22 38.5
q18 19 40 23.5t42 4.5h204q23 0 49.5 -4.5t46.5 -21.5q18 -16 23 -34.5t5 -35.5v-82l-175 -102v-27h-103v72z" />
    <glyph glyph-name="at" unicode="@" horiz-adv-x="1000" 
d="M655 473h64l-71 -281q-2 -5 -3 -13t-1 -16q0 -12 3 -20t8 -13q7 -7 17 -10t19 -3q21 0 48.5 11.5t55.5 38.5q32 32 57.5 83.5t25.5 121.5q0 66 -25.5 119t-70.5 89.5t-107 56t-134 19.5q-82 0 -135.5 -18t-87.5 -38q-94 -55 -145 -145.5t-51 -200.5q0 -49 9.5 -89t26 -72
t39.5 -57.5t49 -44.5q34 -25 70 -40.5t70 -23.5t64 -11t52 -3q25 0 59.5 3.5t74.5 13t83 28t86 48.5l27 -40q-48 -36 -94.5 -58t-88.5 -33t-78 -14.5t-63 -3.5q-59 0 -107 8.5t-86 22t-66.5 29.5t-47.5 31q-49 37 -78.5 79t-45 83t-20.5 78.5t-5 66.5q0 25 3 58t13.5 69.5
t30 76.5t52.5 80q21 27 55 58t82.5 57.5t112 44t144.5 17.5q25 0 57.5 -2.5t68.5 -11.5t74.5 -25.5t74.5 -44.5q42 -32 67.5 -66.5t39 -68t18 -64t4.5 -52.5q0 -85 -31 -154.5t-90 -114.5q-30 -23 -70.5 -39t-91.5 -16q-14 0 -33.5 4t-35.5 19q-14 14 -17.5 29t-3.5 25v9
q-12 -22 -27.5 -37t-33.5 -26q-17 -10 -37 -16t-49 -6q-46 0 -72.5 13.5t-42.5 30.5q-21 23 -29.5 50.5t-8.5 62.5q0 64 20 116.5t54 88.5q28 30 68 50t91 20q85 0 118 -73zM610 347q-6 43 -33.5 66.5t-63.5 23.5q-28 0 -55 -13t-50 -40q-25 -29 -39.5 -72t-14.5 -94
q0 -20 4 -38.5t16 -35.5q14 -19 32 -26t39 -7q30 0 50 10.5t34 22.5q21 18 33 40t19 48z" />
    <glyph glyph-name="A" unicode="A" horiz-adv-x="771" 
d="M490 206l-112 210l-116 -210h228zM441 516l296 -516h-135l-61 112h-328l-59 -112h-121l292 516h116z" />
    <glyph glyph-name="B" unicode="B" horiz-adv-x="800" 
d="M252 432v-123h285q8 0 15.5 1.5t13.5 6.5q5 4 8.5 11t3.5 18v49q0 8 -2 16t-12 14q-8 5 -18 6t-15 1h-279zM252 225v-131h270q9 0 24 1t24 11q7 7 8.5 16.5t1.5 17.5v39q0 8 -1.5 17.5t-8.5 16.5q-9 10 -24 11t-24 1h-270zM591 516q22 0 43.5 -6t35.5 -19
q17 -16 21.5 -37t4.5 -38v-63q0 -10 -3.5 -27.5t-18.5 -31.5q-10 -9 -28.5 -17.5t-38.5 -10.5q20 -2 37 -9.5t28 -18.5q11 -10 19.5 -27.5t8.5 -43.5v-66q0 -20 -7.5 -40.5t-31.5 -36.5q-17 -11 -45 -17.5t-68 -6.5h-416v516h459z" />
    <glyph glyph-name="C" unicode="C" horiz-adv-x="801" 
d="M241 422v-328h324v112l120 -25v-59q0 -8 -0.5 -20.5t-3 -26t-8.5 -27t-16 -23.5q-19 -18 -47 -21.5t-53 -3.5h-308q-25 0 -53 3.5t-47 21.5q-11 10 -16.5 23.5t-8 27t-3 26t-0.5 20.5v272q0 8 0.5 20.5t3 26t8 27t16.5 23.5q19 18 47 21.5t53 3.5h308q25 0 53 -3.5
t47 -21.5q10 -10 16 -23.5t8.5 -27t3 -26t0.5 -20.5v-51l-120 -19v98h-324z" />
    <glyph glyph-name="D" unicode="D" horiz-adv-x="847" 
d="M431 94q58 0 97 13t62 33q16 14 25 29.5t13.5 31.5t5.5 31.5t1 28.5q0 54 -17.5 86t-43 48.5t-55 21.5t-54.5 5h-213v-328h179zM464 516q25 0 54 -2.5t58.5 -10t58 -21.5t53.5 -38q71 -65 71 -183q0 -47 -11 -83.5t-28 -63.5t-37 -45.5t-38 -28.5q-42 -25 -95.5 -32.5
t-116.5 -7.5h-301v516h332z" />
    <glyph glyph-name="E" unicode="E" horiz-adv-x="755" 
d="M660 516v-88h-408v-115h238v-88h-238v-131h413v-94h-533v516h528z" />
    <glyph glyph-name="F" unicode="F" horiz-adv-x="671" 
d="M654 516v-94h-402v-136h217v-94h-217v-192h-120v516h522z" />
    <glyph glyph-name="G" unicode="G" horiz-adv-x="855" 
d="M241 422v-328h372v116h-193v88h313v-176q0 -8 -0.5 -20.5t-3 -26t-8.5 -27t-16 -23.5q-19 -18 -47 -21.5t-53 -3.5h-356q-25 0 -53 3.5t-47 21.5q-11 10 -16.5 23.5t-8 27t-3 26t-0.5 20.5v272q0 8 0.5 20.5t3 26t8 27t16.5 23.5q19 18 47 21.5t53 3.5h356q23 0 51 -3.5
t48 -20.5q20 -18 24.5 -44t4.5 -49v-14l-120 -21v58h-372z" />
    <glyph glyph-name="H" unicode="H" horiz-adv-x="880" 
d="M252 516v-200h376v200h120v-516h-120v222h-376v-222h-120v516h120z" />
    <glyph glyph-name="I" unicode="I" horiz-adv-x="384" 
d="M252 0h-120v516h120v-516z" />
    <glyph glyph-name="J" unicode="J" horiz-adv-x="667" 
d="M207 0q-25 0 -53 3.5t-47 21.5q-11 10 -16.5 23.5t-8 27t-3 26t-0.5 20.5v107l120 23v-158h237v422h120v-394q0 -8 -0.5 -20.5t-3 -26t-8.5 -27t-16 -23.5q-19 -18 -47 -21.5t-53 -3.5h-221z" />
    <glyph glyph-name="K" unicode="K" horiz-adv-x="793" 
d="M252 301l286 215h174l-342 -243l384 -273h-193l-309 227v-227h-120v516h120v-215z" />
    <glyph glyph-name="L" unicode="L" horiz-adv-x="683" 
d="M252 94h387v-94h-507v516h120v-422z" />
    <glyph glyph-name="M" unicode="M" horiz-adv-x="926" 
d="M805 516v-516h-110v319q0 6 0.5 19t3.5 36q-8 -19 -17 -34t-13 -20l-194 -258h-24l-194 259q-14 18 -20 30t-11 23l3 -55v-319h-98v516h98l243 -312l238 312h95z" />
    <glyph glyph-name="N" unicode="N" horiz-adv-x="869" 
d="M576 212q6 -5 10 -8t9.5 -7.5t14 -13.5l25.5 -27l-5 89v271h108v-516h-82l-379 319q-2 2 -16 14.5t-27 27.5l3 -42q0 -3 0.5 -6.5t0.5 -6.5q1 -10 1 -15v-12v-279h-108v516h82z" />
    <glyph glyph-name="O" unicode="O" horiz-adv-x="878" 
d="M637 94v328h-396v-328h396zM121 394q0 8 0.5 20.5t3 26t8 27t16.5 23.5q19 18 47 21.5t53 3.5h380q25 0 53 -3.5t47 -21.5q10 -10 16 -23.5t8.5 -27t3 -26t0.5 -20.5v-272q0 -8 -0.5 -20.5t-3 -26t-8.5 -27t-16 -23.5q-19 -18 -47 -21.5t-53 -3.5h-380q-25 0 -53 3.5
t-47 21.5q-11 10 -16.5 23.5t-8 27t-3 26t-0.5 20.5v272z" />
    <glyph glyph-name="P" unicode="P" horiz-adv-x="743" 
d="M252 428v-139h264q30 0 41 8q10 8 11.5 17.5t1.5 15.5v57q0 6 -1.5 15.5t-11.5 17.5q-11 8 -41 8h-264zM578 516q19 0 42 -4t40 -18q21 -17 25.5 -38.5t4.5 -39.5v-115q0 -5 -0.5 -14t-3 -20t-8 -22t-15.5 -20t-23 -13.5t-26 -7t-24 -3t-16 -0.5h-322v-201h-120v516h446z
" />
    <glyph glyph-name="Q" unicode="Q" horiz-adv-x="878" 
d="M418 94l-48 112l87 35l70 -147h110v328h-396v-328h177zM121 394q0 8 0.5 20.5t3 26t8 27t16.5 23.5q19 18 47 21.5t53 3.5h380q25 0 53 -3.5t47 -21.5q10 -10 16 -23.5t8.5 -27t3 -26t0.5 -20.5v-272q0 -8 -0.5 -20.5t-3 -26t-8.5 -27t-16 -23.5q-19 -18 -47 -21.5
t-53 -3.5h-56l65 -133h-119l-58 133h-212q-25 0 -53 3.5t-47 21.5q-11 10 -16.5 23.5t-8 27t-3 26t-0.5 20.5v272z" />
    <glyph glyph-name="R" unicode="R" horiz-adv-x="803" 
d="M252 428v-145h275q6 0 16 1.5t17 6.5q10 8 11.5 17.5t1.5 15.5v63q0 6 -1.5 15.5t-11.5 17.5q-8 6 -19.5 7t-15.5 1h-273zM577 516q18 0 42.5 -3.5t42.5 -17.5q11 -9 17 -19.5t9 -21t4 -20.5t1 -18v-123q0 -30 -8.5 -48t-19.5 -27q-18 -16 -44.5 -19.5t-43.5 -3.5h-70
l238 -195h-172l-208 195h-113v-195h-120v516h445z" />
    <glyph glyph-name="S" unicode="S" horiz-adv-x="809" 
d="M242 422v-111h321q24 0 53 -3.5t48 -21.5q14 -14 21 -36.5t7 -48.5v-93q0 -23 -7 -46t-21 -37q-9 -9 -21.5 -14t-25 -7.5t-23 -3t-16.5 -0.5h-343q-8 0 -20 0.5t-25 3t-25.5 7.5t-21.5 14q-11 10 -16.5 23.5t-8 27t-3 26t-0.5 20.5v11l106 22v-61h365v123h-334
q-7 0 -18 0.5t-23.5 3t-25 7.5t-21.5 13q-11 10 -16.5 23.5t-8 27t-3 26.5t-0.5 21v55q0 8 0.5 21t3 26.5t8 27t16.5 23.5q9 8 21 13t24.5 7.5t24 3t19.5 0.5h311q9 0 22 -1t26 -3.5t25.5 -7.5t21.5 -14t14.5 -21.5t8 -24.5t3 -23t0.5 -18v-15l-106 -25v59h-337z" />
    <glyph glyph-name="T" unicode="T" horiz-adv-x="624" 
d="M372 0h-120v422h-237v94h594v-94h-237v-422z" />
    <glyph glyph-name="U" unicode="U" horiz-adv-x="846" 
d="M252 94h342v422h120v-394q0 -8 -0.5 -20.5t-3 -26t-8.5 -27t-16 -23.5q-19 -18 -47 -21.5t-53 -3.5h-326q-25 0 -53 3.5t-47 21.5q-11 10 -16.5 23.5t-8 27t-3 26t-0.5 20.5v394h120v-422z" />
    <glyph glyph-name="V" unicode="V" horiz-adv-x="681" 
d="M8 516h137l209 -373l199 373h120l-284 -516h-83z" />
    <glyph glyph-name="W" unicode="W" horiz-adv-x="926" 
d="M39 516h124l131 -346l137 346h84l140 -346l125 346h107l-199 -516h-81l-142 357l-144 -357h-83z" />
    <glyph glyph-name="X" unicode="X" horiz-adv-x="718" 
d="M668 516l-225 -237l278 -279h-163l-189 200l-174 -200h-142l245 265l-249 251h159l165 -175l157 175h138z" />
    <glyph glyph-name="Y" unicode="Y" horiz-adv-x="672" 
d="M664 516l-268 -284v-232h-120v232l-268 284h160l177 -198l178 198h141z" />
    <glyph glyph-name="Z" unicode="Z" horiz-adv-x="682" 
d="M615 516v-49l-366 -373h366v-94h-554v56l359 366h-323v94h518z" />
    <glyph glyph-name="bracketleft" unicode="[" horiz-adv-x="331" 
d="M94 -16v548h221v-71h-125v-403h125v-74h-221z" />
    <glyph glyph-name="backslash" unicode="\" horiz-adv-x="278" 
d="M302 -16h-64l-262 548h66z" />
    <glyph glyph-name="bracketright" unicode="]" horiz-adv-x="331" 
d="M16 58h125v403h-125v71h221v-548h-221v74z" />
    <glyph glyph-name="asciicircum" unicode="^" horiz-adv-x="1000" 
d="M794 440h-88l-206 205l-207 -205h-88l249 272h91z" />
    <glyph glyph-name="underscore" unicode="_" 
d="M500 -236h-500v70h500v-70z" />
    <glyph glyph-name="grave" unicode="`" 
d="M258 478l-144 169h108l100 -169h-64z" />
    <glyph glyph-name="a" unicode="a" horiz-adv-x="646" 
d="M425 168l-99 176l-100 -176h199zM380 423l255 -423h-116l-53 93h-280l-53 -93h-103l251 423h99z" />
    <glyph glyph-name="b" unicode="b" horiz-adv-x="657" 
d="M196 353v-100h230q29 0 38 8q5 5 6.5 10t1.5 12v40q0 4 -1.5 11t-7.5 12q-2 2 -9.5 4.5t-27.5 2.5h-230zM196 75h233q11 0 20.5 2t15.5 7q7 6 8.5 14t1.5 15v32q0 7 -1.5 15t-8.5 14q-5 5 -14 7t-24 2h-231v-108zM474 423q17 0 39.5 -3.5t38.5 -17.5q15 -14 18.5 -31
t3.5 -30v-51q0 -19 -6.5 -31t-13.5 -18q-9 -8 -23 -14.5t-29 -8.5q24 -3 37.5 -13t15.5 -12q8 -8 15 -22t7 -34v-54q0 -12 -5.5 -30t-28.5 -33q-21 -14 -47 -17t-43 -3h-359v423h380z" />
    <glyph glyph-name="c" unicode="c" horiz-adv-x="644" 
d="M569 100q0 -20 -3.5 -42.5t-20.5 -37.5q-10 -9 -30 -14.5t-57 -5.5h-264q-26 0 -49.5 4t-37.5 17q-16 15 -19.5 37t-3.5 42v223q0 20 3.5 42.5t20.5 37.5q23 20 86 20h264q37 0 57 -5.5t30 -14.5q17 -15 20.5 -37.5t3.5 -42.5v-43l-102 -15v78h-281v-263h281v90l102 -21
v-49z" />
    <glyph glyph-name="d" unicode="d" horiz-adv-x="694" 
d="M350 80q19 0 40 2t41 7t38 14t30 23q11 13 19.5 35t8.5 57q0 33 -9 58t-30 42q-24 20 -53 25t-55 5h-184v-268h154zM379 423q41 0 72.5 -5.5t54.5 -14t39 -19t27 -19.5q10 -9 20.5 -22t19.5 -32t15 -43t6 -55q0 -50 -15 -85.5t-37 -58.5q-24 -25 -56 -39t-64 -20.5
t-61 -8t-47 -1.5h-259v423h285z" />
    <glyph glyph-name="e" unicode="e" horiz-adv-x="608" 
d="M548 423v-75h-352v-91h206v-75h-206v-102h357v-80h-459v423h454z" />
    <glyph glyph-name="f" unicode="f" horiz-adv-x="550" 
d="M543 423v-75h-347v-110h188v-80h-188v-158h-102v423h449z" />
    <glyph glyph-name="g" unicode="g" horiz-adv-x="692" 
d="M341 245h269v-145q0 -20 -3.5 -43t-19.5 -37q-8 -7 -26.5 -13.5t-60.5 -6.5h-306q-63 0 -86 20q-17 15 -20.5 37.5t-3.5 42.5v223q0 20 3.5 42.5t20.5 37.5q8 7 26.5 13.5t59.5 6.5h306q26 0 49 -4t36 -15q9 -8 14 -18.5t7.5 -21.5t3 -20.5t0.5 -15.5v-13l-102 -17v45
h-322v-263h322v90h-167v75z" />
    <glyph glyph-name="h" unicode="h" horiz-adv-x="718" 
d="M196 423v-161h325v161h102v-423h-102v178h-325v-178h-102v423h102z" />
    <glyph glyph-name="i" unicode="i" horiz-adv-x="290" 
d="M196 0h-102v423h102v-423z" />
    <glyph glyph-name="j" unicode="j" horiz-adv-x="560" 
d="M166 0q-31 0 -53.5 5t-35.5 17q-15 15 -18.5 38t-3.5 40v88l102 19v-127h206v343h102v-323q0 -16 -4 -40.5t-20 -39.5q-10 -9 -30 -14.5t-57 -5.5h-188z" />
    <glyph glyph-name="k" unicode="k" horiz-adv-x="618" 
d="M196 252l247 171h149l-292 -196l325 -227h-163l-266 191v-191h-102v423h102v-171z" />
    <glyph glyph-name="l" unicode="l" horiz-adv-x="552" 
d="M196 80h334v-80h-436v423h102v-343z" />
    <glyph glyph-name="m" unicode="m" horiz-adv-x="767" 
d="M384 172l206 251h83v-423h-96v291l-189 -240h-20l-191 233v-284h-83v423h83z" />
    <glyph glyph-name="n" unicode="n" horiz-adv-x="712" 
d="M523 142v281h94v-423h-71l-358 285v-285h-94v423h71z" />
    <glyph glyph-name="o" unicode="o" horiz-adv-x="715" 
d="M529 80v263h-343v-263h343zM84 323q0 6 0.5 16.5t2.5 22t6.5 22.5t13.5 19q21 20 83 20h331q7 0 19 -0.5t24.5 -2.5t24.5 -6.5t21 -12.5q8 -8 12 -18.5t6 -21.5t2.5 -21t0.5 -17v-228q0 -15 -3.5 -36t-17.5 -36q-16 -17 -41.5 -20t-47.5 -3h-327q-31 0 -54 5t-35 17
q-8 8 -12 19t-6 22t-2.5 21t-0.5 16v223z" />
    <glyph glyph-name="p" unicode="p" horiz-adv-x="628" 
d="M196 239h241q6 0 15 1.5t16 6.5t8.5 11.5t1.5 14.5v41q0 6 -1.5 13t-7.5 12q-8 7 -18.5 8t-19.5 1h-235v-109zM475 423q35 0 55 -8t29.5 -20t12 -26.5t2.5 -27.5v-95q0 -15 -4 -32.5t-20 -30.5t-37.5 -16t-37.5 -3h-279v-164h-102v423h381z" />
    <glyph glyph-name="q" unicode="q" horiz-adv-x="715" 
d="M342 80l-44 91l74 28l58 -119h99v263h-343v-263h156zM84 323q0 16 3.5 40.5t20.5 40.5q9 8 28.5 13.5t57.5 5.5h327q19 0 44.5 -2.5t41.5 -16.5q17 -16 20.5 -39.5t3.5 -41.5v-223q0 -17 -3.5 -41t-20.5 -39q-8 -7 -26.5 -13.5t-59.5 -6.5h-50l57 -109h-103l-48 109h-183
q-63 0 -86 20q-17 16 -20.5 39.5t-3.5 40.5v223z" />
    <glyph glyph-name="r" unicode="r" horiz-adv-x="650" 
d="M196 348v-115h235q17 0 25 2.5t11 4.5q8 5 9.5 12.5t1.5 14.5v47q0 5 -1 12.5t-9 13.5q-7 5 -17 6.5t-18 1.5h-237zM475 423q32 0 49 -5.5t25 -12.5q17 -14 21 -32t4 -32v-102q0 -14 -4 -32.5t-24 -32.5q-14 -9 -34 -12.5t-37 -3.5h-56l199 -158h-148l-175 158h-99v-158
h-102v423h381z" />
    <glyph glyph-name="s" unicode="s" horiz-adv-x="665" 
d="M195 348v-91h276q66 0 87 -20q17 -15 20 -37.5t3 -42.5v-57q0 -20 -3 -42t-20 -37q-14 -13 -37.5 -17t-49.5 -4h-277q-42 0 -60.5 6.5t-26.5 13.5q-9 8 -16.5 25.5t-7.5 47.5v20l94 17v-50h308v97h-275q-42 0 -60.5 6.5t-26.5 13.5q-11 10 -17.5 29t-6.5 42v59
q0 6 0.5 15.5t3 20.5t7 21.5t13.5 18.5q15 14 39.5 17t47.5 3h264q35 0 53 -7.5t26 -15.5q14 -14 17.5 -33.5t3.5 -35.5v-9l-89 -19v45h-290z" />
    <glyph glyph-name="t" unicode="t" horiz-adv-x="590" 
d="M346 0h-102v348h-205v75h512v-75h-205v-348z" />
    <glyph glyph-name="u" unicode="u" horiz-adv-x="689" 
d="M196 80h297v343h102v-327q0 -34 -8 -51t-16 -25q-10 -9 -30 -14.5t-57 -5.5h-280q-63 0 -86 20q-17 15 -20.5 38t-3.5 39v326h102v-343z" />
    <glyph glyph-name="v" unicode="v" horiz-adv-x="632" 
d="M36 423h117l179 -307l169 307h107l-245 -423h-71z" />
    <glyph glyph-name="w" unicode="w" horiz-adv-x="789" 
d="M36 423h108l111 -295l119 295h71l118 -295l109 295h93l-170 -423h-70l-122 299l-124 -299h-71z" />
    <glyph glyph-name="x" unicode="x" horiz-adv-x="638" 
d="M580 423l-193 -194l238 -229h-141l-162 158l-149 -158h-122l209 217l-213 206h138l142 -137l134 137h119z" />
    <glyph glyph-name="y" unicode="y" horiz-adv-x="593" 
d="M587 423l-231 -233v-190h-102v190l-231 233h139l151 -158l153 158h121z" />
    <glyph glyph-name="z" unicode="z" horiz-adv-x="616" 
d="M547 423v-40l-312 -303h312v-80h-477v46l311 302h-280v75h446z" />
    <glyph glyph-name="braceleft" unicode="{" 
d="M403 648h-18q-10 0 -21 -2.5t-22.5 -7.5t-19.5 -14q-14 -16 -16 -42t-2 -46v-118q0 -32 -4.5 -67t-29.5 -60q-12 -12 -30.5 -20t-33.5 -12q18 -4 35.5 -12.5t28.5 -19.5q25 -25 29.5 -59.5t4.5 -67.5v-118q0 -26 2.5 -50t15.5 -38q15 -17 38.5 -20.5t43.5 -3.5h19v-72
h-21q-38 0 -73 4t-60 20q-18 12 -28 27.5t-14.5 35t-5.5 41.5t-1 46v120q0 10 -0.5 25.5t-4.5 31t-11.5 30.5t-21.5 26t-34 15.5t-37 3.5l-29 -1v73l22 -1q25 -1 50.5 6.5t39.5 23.5q8 9 17 31t9 70v120q0 24 1 46t5.5 41.5t14.5 35.5t28 27q14 9 31.5 14t36 7.5t36 3
t32.5 0.5h18v-73h-20z" />
    <glyph glyph-name="bar" unicode="|" 
d="M287 -236h-73v1000h73v-1000z" />
    <glyph glyph-name="braceright" unicode="}" 
d="M77 721h18q15 0 32.5 -0.5t36 -3t36 -7.5t31.5 -14q18 -11 28 -27t14.5 -35.5t5.5 -41.5t1 -46v-120q0 -48 9 -70t17 -31q14 -16 39.5 -23.5t50.5 -6.5l22 1v-73l-29 1q-17 1 -37 -3.5t-34 -15.5t-21.5 -26t-11.5 -30.5t-4.5 -31t-0.5 -25.5v-120q0 -24 -1 -46
t-5.5 -41.5t-14.5 -35t-28 -27.5q-25 -16 -60 -20t-73 -4h-21v72h19q20 0 43.5 3.5t38.5 20.5q13 14 15.5 38t2.5 50v118q0 33 4.5 67.5t29.5 59.5q11 11 28.5 19.5t35.5 12.5q-15 4 -33.5 12t-30.5 20q-25 25 -29.5 60t-4.5 67v118q0 20 -2 46t-16 42q-8 9 -19.5 14
t-22.5 7.5t-22 2.5h-17h-20v73z" />
    <glyph glyph-name="asciitilde" unicode="~" horiz-adv-x="833" 
d="M747 300q-12 -8 -31 -20t-44 -23t-54.5 -18.5t-60.5 -7.5q-37 0 -71.5 10.5t-53.5 17.5l-24 9q-41 15 -74.5 22t-58.5 7q-26 0 -52 -7t-51 -18.5t-46.5 -25t-38.5 -26.5v76q38 27 88 48.5t101 21.5q29 0 67 -7.5t75 -22.5l23 -8q35 -12 60 -20t57 -8q27 0 54 7t51 18
t45.5 24.5t38.5 26.5v-76z" />
    <glyph glyph-name="sterling" unicode="&#xa3;" horiz-adv-x="773" 
d="M105 91q23 1 46.5 8.5t37.5 19.5q12 10 18 23t8 25.5t2 24.5t-1 21l-1 14h-111v80h105q-1 10 -1.5 17t-1 13.5l-1 13t-0.5 16.5q0 15 1 30.5t5.5 31.5t13 30.5t23.5 26.5q25 20 57.5 25t59.5 5h175q9 0 23 -1t29 -4t30.5 -9.5t27.5 -17.5q17 -16 22 -33.5t5 -34.5v-47
l-101 -17v33q0 7 -2.5 18.5t-14.5 19.5q-5 3 -16.5 6.5t-37.5 3.5h-114q-17 0 -36.5 -2t-31.5 -13q-14 -12 -16 -29.5t-2 -31.5v-13t0.5 -8t1 -10t2.5 -19h146v-80h-142q0 -40 -5.5 -64t-11.5 -39q81 -23 143 -29t100 -6q7 0 16.5 0.5t19 2t18.5 5.5t15 11q8 10 9.5 24.5
t1.5 21.5v20l98 -18v-27q0 -20 -4 -46.5t-29 -50.5q-13 -13 -29.5 -21t-34.5 -12t-35.5 -5.5t-33.5 -1.5q-8 0 -32 1t-62.5 6t-89.5 15.5t-114 29.5q-41 -37 -75.5 -46.5t-63.5 -9.5h-9v103z" />
    <glyph glyph-name="currency" unicode="&#xa4;" horiz-adv-x="606" 
d="M153 432q0 -31 12 -58.5t32 -47.5t47.5 -32t58.5 -12t58.5 12t47.5 32t32 47.5t12 58.5t-12 58.5t-32 47.5t-47.5 32t-58.5 12t-58.5 -12t-47.5 -32t-32 -47.5t-12 -58.5zM139 308q-21 28 -31.5 60t-10.5 64t10.5 64t31.5 60l-100 100l40 39l99 -99q29 21 61 31.5
t64 10.5t64 -10t61 -33l100 100l40 -39l-100 -101q20 -27 30.5 -59t10.5 -64q0 -28 -9 -60t-32 -63l100 -100l-40 -40l-100 100q-29 -23 -61 -33t-64 -10t-64 10.5t-61 31.5l-99 -99l-40 40z" />
    <glyph glyph-name="section" unicode="&#xa7;" 
d="M134 33q37 -36 68 -45.5t49 -9.5q11 0 24.5 3t23.5 11t13 15.5t3 15.5q0 17 -15 31q-11 9 -27.5 16t-42.5 18l-58 25q-6 3 -16 7.5t-22 11.5t-24 15.5t-21 19.5q-15 17 -21.5 34t-6.5 36q0 20 7 38t22 32q14 13 33.5 21t37.5 10q-20 12 -30.5 24.5t-11.5 14.5
q-6 10 -10 23t-4 27q0 17 8 39t33 40q39 28 99 28q23 0 45.5 -4t41.5 -11q20 -8 38.5 -19t34.5 -25l-58 -51q-23 23 -49 35q-11 5 -23.5 9t-26.5 4q-11 0 -22.5 -2.5t-19.5 -7.5q-18 -11 -18 -32q0 -6 3.5 -15t15.5 -18q11 -8 29.5 -16t38.5 -16l46 -19q8 -3 20 -8.5
t24.5 -12.5t23.5 -14t19 -14q18 -16 26 -36t8 -39q0 -22 -8 -38t-22 -29t-32.5 -22t-41.5 -13q31 -15 48 -44q5 -8 9.5 -21.5t4.5 -30.5q0 -30 -13 -49t-24 -28q-18 -16 -45 -26.5t-66 -10.5q-25 0 -50 5.5t-46 13.5q-19 8 -39.5 20t-40.5 30zM132 263q0 -17 13.5 -32.5
t45.5 -32.5q20 -11 43.5 -20.5t46.5 -15.5q21 -6 41 -6q28 0 39 12.5t11 25.5q0 20 -20.5 37t-49.5 32q-21 11 -47.5 21t-45.5 14q-6 2 -15 3t-17 1q-13 0 -20.5 -3.5t-12.5 -7.5q-12 -10 -12 -28z" />
    <glyph glyph-name="dieresis" unicode="&#xa8;" 
d="M283 613h100v-112h-100v112zM117 613h100v-112h-100v112z" />
    <glyph glyph-name="copyright" unicode="&#xa9;" horiz-adv-x="830" 
d="M610 253q0 -18 -3.5 -40.5t-19.5 -36.5q-7 -6 -25 -12.5t-59 -6.5h-159q-40 0 -58 6.5t-26 13.5q-15 14 -18.5 36.5t-3.5 39.5v214q0 13 2.5 36.5t20.5 39.5q7 6 25 12.5t58 6.5h159q41 0 59 -6.5t25 -12.5q18 -16 20.5 -39.5t2.5 -36.5v-42l-90 -14v75h-188v-252h188v86
l90 -20v-47zM105 350q0 -64 24.5 -120.5t66.5 -98.5t98.5 -66.5t120.5 -24.5t120.5 24.5t98.5 66.5t66.5 98.5t24.5 120.5t-24.5 120.5t-66.5 98.5t-98.5 66.5t-120.5 24.5t-120.5 -24.5t-98.5 -66.5t-66.5 -98.5t-24.5 -120.5zM57 350q0 74 28 139.5t76.5 114t114 76.5
t139.5 28t139.5 -28t114 -76.5t76.5 -114t28 -139.5t-28 -139.5t-76.5 -114t-114 -76.5t-139.5 -28t-139.5 28t-114 76.5t-76.5 114t-28 139.5z" />
    <glyph glyph-name="guillemotleft" unicode="&#xab;" horiz-adv-x="562" 
d="M411 64l-118 148l118 147h89l-114 -147l114 -148h-89zM180 64l-118 148l118 147h89l-114 -147l114 -148h-89z" />
    <glyph glyph-name="logicalnot" unicode="&#xac;" horiz-adv-x="833" 
d="M709 175h-67v177h-518v68h585v-245z" />
    <glyph glyph-name="registered" unicode="&#xae;" horiz-adv-x="830" 
d="M327 494v-117h145q11 0 20 1t17 6q10 6 11 13t1 16v45q0 7 -1 13.5t-10 13.5q-8 6 -17 7.5t-19 1.5h-147zM233 562h279q11 0 32.5 -2.5t36.5 -15.5q16 -13 19.5 -30t3.5 -30v-98q0 -14 -3 -30.5t-23 -30.5q-14 -9 -32 -12.5t-34 -3.5h-40l151 -152h-129l-134 152h-33
v-152h-94v405zM105 350q0 -64 24.5 -120.5t66.5 -98.5t98.5 -66.5t120.5 -24.5t120.5 24.5t98.5 66.5t66.5 98.5t24.5 120.5t-24.5 120.5t-66.5 98.5t-98.5 66.5t-120.5 24.5t-120.5 -24.5t-98.5 -66.5t-66.5 -98.5t-24.5 -120.5zM57 350q0 74 28 139.5t76.5 114t114 76.5
t139.5 28t139.5 -28t114 -76.5t76.5 -114t28 -139.5t-28 -139.5t-76.5 -114t-114 -76.5t-139.5 -28t-139.5 28t-114 76.5t-76.5 114t-28 139.5z" />
    <glyph glyph-name="degree" unicode="&#xb0;" horiz-adv-x="328" 
d="M70 570q0 -19 7.5 -36t20.5 -30t30 -20.5t36 -7.5t36 7.5t30 20.5t20.5 30t7.5 36t-7.5 36t-20.5 30t-30 20.5t-36 7.5t-36 -7.5t-30 -20.5t-20.5 -30t-7.5 -36zM24 570q0 29 11 54.5t30 44.5t44.5 30t54.5 11t54.5 -11t44.5 -30t30 -44.5t11 -54.5t-11 -54.5t-30 -44.5
t-44.5 -30t-54.5 -11t-54.5 11t-44.5 30t-30 44.5t-11 54.5z" />
    <glyph glyph-name="plusminus" unicode="&#xb1;" horiz-adv-x="833" 
d="M709 14h-585v69h585v-69zM451 416h258v-68h-258v-166h-69v166h-258v68h258v166h69v-166z" />
    <glyph glyph-name="acute" unicode="&#xb4;" 
d="M278 647h108l-144 -169h-64z" />
    <glyph glyph-name="mu" unicode="&#xb5;" horiz-adv-x="562" 
d="M125 230q-3 -16 -5 -33.5t-2 -31.5q0 -32 10 -51.5t25.5 -30.5t33.5 -15t34 -4q40 0 62 15t35 31q23 28 36 65t24 86l56 262h87l-78 -367q-2 -11 -5.5 -26t-3.5 -29q0 -3 0.5 -9t4 -11.5t10.5 -9.5t20 -3l16 1l-15 -70q-5 -1 -17 -3t-18 -2h-9q-11 0 -23 1.5t-24 7.5
t-21.5 18.5t-13.5 35.5q-25 -37 -61 -50.5t-71 -13.5q-50 0 -80 19t-45 38l-54 -259h-88l155 732h88z" />
    <glyph glyph-name="mu" unicode="&#x3bc;" horiz-adv-x="562" 
d="M125 230q-3 -16 -5 -33.5t-2 -31.5q0 -32 10 -51.5t25.5 -30.5t33.5 -15t34 -4q40 0 62 15t35 31q23 28 36 65t24 86l56 262h87l-78 -367q-2 -11 -5.5 -26t-3.5 -29q0 -3 0.5 -9t4 -11.5t10.5 -9.5t20 -3l16 1l-15 -70q-5 -1 -17 -3t-18 -2h-9q-11 0 -23 1.5t-24 7.5
t-21.5 18.5t-13.5 35.5q-25 -37 -61 -50.5t-71 -13.5q-50 0 -80 19t-45 38l-54 -259h-88l155 732h88z" />
    <glyph glyph-name="paragraph" unicode="&#xb6;" 
d="M409 680v-680h-54v680h-87v-680h-54v382q-38 0 -70.5 12t-55.5 32q-20 17 -38 47.5t-18 78.5q0 29 12 64t44 62q21 17 54 30.5t82 13.5h244v-42h-59z" />
    <glyph glyph-name="guillemotright" unicode="&#xbb;" horiz-adv-x="562" 
d="M382 359l118 -147l-118 -148h-88l113 148l-113 147h88zM151 359l118 -147l-118 -148h-89l114 148l-114 147h89z" />
    <glyph glyph-name="divide" unicode="&#xf7;" horiz-adv-x="833" 
d="M355 118q0 26 18 44t44 18t44 -18t18 -44t-18 -44t-44 -18t-44 18t-18 44zM355 478q0 26 18 44t44 18t44 -18t18 -44t-18 -44t-44 -18t-44 18t-18 44zM709 264h-585v68h585v-68z" />
    <glyph glyph-name="dotlessi" unicode="&#x131;" horiz-adv-x="290" 
d="M94 423h102v-423h-102v423z" />
    <glyph glyph-name="florin" unicode="&#x192;" horiz-adv-x="773" 
d="M386 6q-5 -24 -15 -54t-32 -50q-23 -20 -55.5 -25t-58.5 -5q-25 0 -49.5 4t-44.5 18q-23 16 -30 36.5t-7 41.5v34l98 23l-1 -20q-1 -14 -1 -27q0 -14 9 -22q6 -6 13 -7t12 -1q8 0 18 2t18 9q8 8 14 23.5t8 26.5l62 316h-93v58h105l20 103q5 26 16 57t36 50q11 8 37.5 17
t83.5 9q20 0 45 -4t45 -21q17 -15 24.5 -40t5.5 -67l-99 -14l1 17q1 14 1 26t-10 20q-6 5 -13 6t-13 1q-20 0 -33 -11q-10 -8 -14.5 -22t-7.5 -28l-20 -99h108v-58h-120z" />
    <glyph glyph-name="dotaccent" unicode="&#x2d9;" 
d="M198 616h105v-117h-105v117z" />
    <glyph glyph-name="afii10023" unicode="&#x401;" horiz-adv-x="755" 
d="M467 688h100v-112h-100v112zM229 688h100v-112h-100v112zM660 516v-88h-408v-115h238v-88h-238v-131h413v-94h-533v516h528z" />
    <glyph glyph-name="afii10051" unicode="&#x402;" horiz-adv-x="879" 
d="M351 304h322q5 0 16 -0.5t24 -3t26 -7t23 -13.5t15.5 -20t8 -22t3 -20t0.5 -14v-104q0 -5 -0.5 -14t-3 -20t-8 -22t-15.5 -20t-23 -13.5t-26 -7t-24 -3t-16 -0.5h-174v88h120q30 0 41 8q10 8 11.5 17.5t1.5 15.5v46q0 6 -1.5 15.5t-11.5 17.5q-11 8 -41 8h-268v-216h-120
v422h-216v94h594v-94h-258v-118z" />
    <glyph glyph-name="afii10052" unicode="&#x403;" horiz-adv-x="635" 
d="M345 697h124l-165 -136h-71zM618 516v-94h-366v-422h-120v516h486z" />
    <glyph glyph-name="afii10053" unicode="&#x404;" horiz-adv-x="780" 
d="M236 432v-123h238v-84h-238v-131h324v82l120 -25v-29q0 -8 -0.5 -20.5t-3 -26t-8.5 -27t-16 -23.5q-19 -18 -47 -21.5t-53 -3.5h-308q-25 0 -53 3.5t-47 21.5q-11 10 -16.5 23.5t-8 27t-3 26t-0.5 20.5v272q0 8 0.5 20.5t3 26t8 27t16.5 23.5q19 18 47 21.5t53 3.5h308
q25 0 53 -3.5t47 -21.5q10 -10 16 -23.5t8.5 -27t3 -26t0.5 -20.5v-17l-120 -19v74h-324z" />
    <glyph glyph-name="afii10054" unicode="&#x405;" horiz-adv-x="809" 
d="M242 422v-111h321q24 0 53 -3.5t48 -21.5q14 -14 21 -36.5t7 -48.5v-93q0 -23 -7 -46t-21 -37q-9 -9 -21.5 -14t-25 -7.5t-23 -3t-16.5 -0.5h-343q-8 0 -20 0.5t-25 3t-25.5 7.5t-21.5 14q-11 10 -16.5 23.5t-8 27t-3 26t-0.5 20.5v11l106 22v-61h365v123h-334
q-7 0 -18 0.5t-23.5 3t-25 7.5t-21.5 13q-11 10 -16.5 23.5t-8 27t-3 26.5t-0.5 21v55q0 8 0.5 21t3 26.5t8 27t16.5 23.5q9 8 21 13t24.5 7.5t24 3t19.5 0.5h311q9 0 22 -1t26 -3.5t25.5 -7.5t21.5 -14t14.5 -21.5t8 -24.5t3 -23t0.5 -18v-15l-106 -25v59h-337z" />
    <glyph glyph-name="afii10055" unicode="&#x406;" horiz-adv-x="384" 
d="M132 516h120v-516h-120v516z" />
    <glyph glyph-name="afii10056" unicode="&#x407;" horiz-adv-x="384" 
d="M228 688h110v-112h-110v112zM46 688h110v-112h-110v112zM132 516h120v-516h-120v516z" />
    <glyph glyph-name="afii10057" unicode="&#x408;" horiz-adv-x="667" 
d="M207 0q-25 0 -53 3.5t-47 21.5q-11 10 -16.5 23.5t-8 27t-3 26t-0.5 20.5v107l120 23v-158h237v422h120v-394q0 -8 -0.5 -20.5t-3 -26t-8.5 -27t-16 -23.5q-19 -18 -47 -21.5t-53 -3.5h-221z" />
    <glyph glyph-name="afii10058" unicode="&#x409;" horiz-adv-x="1147" 
d="M631 245v-151h272q9 0 23.5 1.5t23.5 9.5q11 9 11 31v65q0 7 -2 17t-11 18q-7 6 -18.5 7.5t-19.5 1.5h-279zM441 516h190v-187h293q14 0 31 0.5t34.5 -2t34 -9.5t29.5 -21q8 -8 16 -24.5t8 -42.5v-129q0 -12 -4.5 -32.5t-26.5 -38.5q-12 -11 -28.5 -17t-33 -9t-32.5 -3.5
t-27 -0.5h-414v432h-9l-355 -432h-137z" />
    <glyph glyph-name="afii10059" unicode="&#x40a;" horiz-adv-x="1264" 
d="M748 238v-144h272q9 0 23.5 1.5t23.5 9.5q11 9 11 31v58q0 7 -2 17t-11 18q-7 6 -18.5 7.5t-19.5 1.5h-279zM1041 322q14 0 31 0.5t34.5 -2t34 -9.5t29.5 -21q8 -8 16 -24.5t8 -42.5v-122q0 -12 -4.5 -32.5t-26.5 -38.5q-12 -11 -28.5 -17t-33 -9t-32.5 -3.5t-27 -0.5
h-414v228h-376v-228h-120v516h120v-194h376v194h120v-194h293z" />
    <glyph glyph-name="afii10060" unicode="&#x40b;" horiz-adv-x="900" 
d="M372 304h322q5 0 16 -0.5t24 -3t26 -7t23 -13.5t15.5 -20t8 -22t3 -20t0.5 -14v-204h-116v175q0 6 -1.5 15.5t-11.5 17.5q-11 8 -41 8h-268v-216h-120v422h-237v94h594v-94h-237v-118z" />
    <glyph glyph-name="afii10061" unicode="&#x40c;" horiz-adv-x="793" 
d="M424 697h124l-165 -136h-71zM252 301l286 215h174l-342 -243l384 -273h-193l-309 227v-227h-120v516h120v-215z" />
    <glyph glyph-name="afii10062" unicode="&#x40e;" horiz-adv-x="845" 
d="M585 705q4 -30 -5 -56t-25 -44q-26 -29 -62 -36.5t-71 -7.5t-71 7.5t-62 36.5q-16 18 -25 44t-5 56h80q-1 -13 3 -25.5t12 -20.5q9 -9 25.5 -14.5t42.5 -5.5t42.5 5.5t25.5 14.5q8 8 12 20.5t3 25.5h80zM236 293h356v223h121v-408q0 -23 -7 -46t-21 -37q-9 -9 -21.5 -14
t-25 -7.5t-23 -3t-16.5 -0.5h-359q-8 0 -20 0.5t-25 3t-25.5 7.5t-21.5 14q-11 10 -16.5 23.5t-8 27t-3 26t-0.5 20.5v16l116 22v-66h356v115h-356q-7 0 -18 0.5t-23.5 3t-25 7.5t-21.5 13q-11 10 -16.5 23.5t-8 27t-3 26.5t-0.5 21v185h116v-223z" />
    <glyph glyph-name="afii10145" unicode="&#x40f;" horiz-adv-x="864" 
d="M252 516v-422h360v422h120v-516h-243v-99h-114v99h-243v516h120z" />
    <glyph glyph-name="afii10017" unicode="&#x410;" horiz-adv-x="771" 
d="M490 206l-112 210l-116 -210h228zM441 516l296 -516h-135l-61 112h-328l-59 -112h-121l292 516h116z" />
    <glyph glyph-name="afii10018" unicode="&#x411;" horiz-adv-x="798" 
d="M252 232v-138h272q9 0 23.5 1.5t23.5 9.5q11 9 11 31v52q0 7 -2 17t-11 18q-7 6 -18.5 7.5t-19.5 1.5h-279zM664 516v-94h-412v-106h310q26 0 52.5 -4t49.5 -23q24 -20 29 -41.5t5 -35.5v-111q0 -12 -4.5 -32.5t-26.5 -38.5q-12 -11 -28.5 -17t-33 -9t-32.5 -3.5
t-27 -0.5h-414v516h532z" />
    <glyph glyph-name="afii10019" unicode="&#x412;" horiz-adv-x="800" 
d="M252 432v-123h285q8 0 15.5 1.5t13.5 6.5q5 4 8.5 11t3.5 18v49q0 8 -2 16t-12 14q-8 5 -18 6t-15 1h-279zM252 225v-131h270q9 0 24 1t24 11q7 7 8.5 16.5t1.5 17.5v39q0 8 -1.5 17.5t-8.5 16.5q-9 10 -24 11t-24 1h-270zM591 516q22 0 43.5 -6t35.5 -19
q17 -16 21.5 -37t4.5 -38v-63q0 -10 -3.5 -27.5t-18.5 -31.5q-10 -9 -28.5 -17.5t-38.5 -10.5q20 -2 37 -9.5t28 -18.5q11 -10 19.5 -27.5t8.5 -43.5v-66q0 -20 -7.5 -40.5t-31.5 -36.5q-17 -11 -45 -17.5t-68 -6.5h-416v516h459z" />
    <glyph glyph-name="afii10020" unicode="&#x413;" horiz-adv-x="635" 
d="M618 516v-94h-366v-422h-120v516h486z" />
    <glyph glyph-name="afii10021" unicode="&#x414;" horiz-adv-x="720" 
d="M515 88l-163 324l-159 -324h322zM416 516l217 -422h62v-193h-114v99h-442v-99h-114v193h62l213 422h116z" />
    <glyph glyph-name="afii10022" unicode="&#x415;" horiz-adv-x="755" 
d="M660 516v-88h-408v-115h238v-88h-238v-131h413v-94h-533v516h528z" />
    <glyph glyph-name="afii10024" unicode="&#x416;" horiz-adv-x="1026" 
d="M573 284l230 232h144l-256 -243l304 -273h-168l-254 244v-244h-120v244l-254 -244h-168l304 273l-256 243h144l230 -232v232h120v-232z" />
    <glyph glyph-name="afii10025" unicode="&#x417;" horiz-adv-x="750" 
d="M215 0q-10 0 -22.5 0.5t-25.5 2.5t-25 7t-20 13q-15 15 -18.5 37t-3.5 39v44l106 22v-71h279q7 0 17.5 1t17.5 8q5 5 7.5 13.5t2.5 17.5v49q0 5 -1 15t-9 17q-6 6 -16.5 8t-18.5 2h-175v84h168q8 0 16.5 0.5t16.5 8.5q7 7 8 16.5t1 13.5v43q0 5 -1 14.5t-8 16.5
q-6 7 -16 8.5t-18 1.5h-264v-64l-102 19v35q0 17 4.5 38t21.5 36q16 14 40.5 17t39.5 3h306q18 0 43.5 -4.5t44.5 -21.5q17 -16 21 -36.5t4 -37.5v-63q0 -13 -3 -27t-16 -28q-9 -11 -26 -20.5t-41 -11.5q22 -1 42 -9.5t34 -22.5q8 -9 16 -25t8 -42v-66q0 -12 -4.5 -32.5
t-26.5 -38.5q-12 -11 -28.5 -17t-33 -9t-32.5 -3.5t-27 -0.5h-283z" />
    <glyph glyph-name="afii10026" unicode="&#x418;" horiz-adv-x="914" 
d="M252 135l430 381h100v-516h-120v381l-430 -381h-100v516h120v-381z" />
    <glyph glyph-name="afii10027" unicode="&#x419;" horiz-adv-x="914" 
d="M252 135l430 381h100v-516h-120v381l-430 -381h-100v516h120v-381zM620 705q4 -30 -5 -56t-25 -44q-26 -29 -62 -36.5t-71 -7.5t-71 7.5t-62 36.5q-16 18 -25 44t-5 56h80q-1 -13 3 -25.5t12 -20.5q9 -9 25.5 -14.5t42.5 -5.5t42.5 5.5t25.5 14.5q8 8 12 20.5t3 25.5h80z
" />
    <glyph glyph-name="afii10028" unicode="&#x41a;" horiz-adv-x="793" 
d="M252 301l286 215h174l-342 -243l384 -273h-193l-309 227v-227h-120v516h120v-215z" />
    <glyph glyph-name="afii10029" unicode="&#x41b;" horiz-adv-x="747" 
d="M429 516l284 -516h-140l-206 407l-209 -407h-125l280 516h116z" />
    <glyph glyph-name="afii10030" unicode="&#x41c;" horiz-adv-x="926" 
d="M805 516v-516h-110v319q0 6 0.5 19t3.5 36q-8 -19 -17 -34t-13 -20l-194 -258h-24l-194 259q-14 18 -20 30t-11 23l3 -55v-319h-98v516h98l243 -312l238 312h95z" />
    <glyph glyph-name="afii10031" unicode="&#x41d;" horiz-adv-x="880" 
d="M252 316h376v200h120v-516h-120v222h-376v-222h-120v516h120v-200z" />
    <glyph glyph-name="afii10032" unicode="&#x41e;" horiz-adv-x="878" 
d="M637 94v328h-396v-328h396zM121 394q0 8 0.5 20.5t3 26t8 27t16.5 23.5q19 18 47 21.5t53 3.5h380q25 0 53 -3.5t47 -21.5q10 -10 16 -23.5t8.5 -27t3 -26t0.5 -20.5v-272q0 -8 -0.5 -20.5t-3 -26t-8.5 -27t-16 -23.5q-19 -18 -47 -21.5t-53 -3.5h-380q-25 0 -53 3.5
t-47 21.5q-11 10 -16.5 23.5t-8 27t-3 26t-0.5 20.5v272z" />
    <glyph glyph-name="afii10033" unicode="&#x41f;" horiz-adv-x="864" 
d="M732 516v-516h-120v422h-360v-422h-120v516h600z" />
    <glyph glyph-name="afii10034" unicode="&#x420;" horiz-adv-x="743" 
d="M252 428v-139h264q30 0 41 8q10 8 11.5 17.5t1.5 15.5v57q0 6 -1.5 15.5t-11.5 17.5q-11 8 -41 8h-264zM578 516q19 0 42 -4t40 -18q21 -17 25.5 -38.5t4.5 -39.5v-115q0 -5 -0.5 -14t-3 -20t-8 -22t-15.5 -20t-23 -13.5t-26 -7t-24 -3t-16 -0.5h-322v-201h-120v516h446z
" />
    <glyph glyph-name="afii10035" unicode="&#x421;" horiz-adv-x="801" 
d="M241 422v-328h324v112l120 -25v-59q0 -8 -0.5 -20.5t-3 -26t-8.5 -27t-16 -23.5q-19 -18 -47 -21.5t-53 -3.5h-308q-25 0 -53 3.5t-47 21.5q-11 10 -16.5 23.5t-8 27t-3 26t-0.5 20.5v272q0 8 0.5 20.5t3 26t8 27t16.5 23.5q19 18 47 21.5t53 3.5h308q25 0 53 -3.5
t47 -21.5q10 -10 16 -23.5t8.5 -27t3 -26t0.5 -20.5v-51l-120 -19v98h-324z" />
    <glyph glyph-name="afii10036" unicode="&#x422;" horiz-adv-x="624" 
d="M372 0h-120v422h-237v94h594v-94h-237v-422z" />
    <glyph glyph-name="afii10037" unicode="&#x423;" horiz-adv-x="845" 
d="M236 293h356v223h121v-408q0 -23 -7 -46t-21 -37q-9 -9 -21.5 -14t-25 -7.5t-23 -3t-16.5 -0.5h-359q-8 0 -20 0.5t-25 3t-25.5 7.5t-21.5 14q-11 10 -16.5 23.5t-8 27t-3 26t-0.5 20.5v16l116 22v-66h356v115h-356q-7 0 -18 0.5t-23.5 3t-25 7.5t-21.5 13
q-11 10 -16.5 23.5t-8 27t-3 26.5t-0.5 21v185h116v-223z" />
    <glyph glyph-name="afii10038" unicode="&#x424;" horiz-adv-x="886" 
d="M218 373q-8 0 -18.5 -1.5t-17.5 -6.5q-4 -3 -8.5 -9.5t-4.5 -20.5v-124q0 -14 4.5 -20.5t8.5 -9.5q3 -2 11.5 -5t25.5 -3h166v200h-167zM501 373v-200h166q17 0 25.5 3t11.5 5q4 3 8.5 9.5t4.5 20.5v124q0 14 -4.5 20.5t-8.5 9.5q-7 5 -17.5 6.5t-18.5 1.5h-167zM503 461
h214q42 0 60.5 -8t22.5 -11q23 -17 28 -40.5t5 -40.5v-176q0 -20 -5 -40.5t-25 -37.5t-44 -19.5t-42 -2.5h-214v-85h-120v85h-214q-18 0 -42 2.5t-44 19.5t-25 37.5t-5 40.5v176q0 17 5 40.5t28 40.5q4 3 22.5 11t60.5 8h214v78h120v-78z" />
    <glyph glyph-name="afii10039" unicode="&#x425;" horiz-adv-x="718" 
d="M668 516l-225 -237l278 -279h-163l-189 200l-174 -200h-142l245 265l-249 251h159l165 -175l157 175h138z" />
    <glyph glyph-name="afii10040" unicode="&#x426;" horiz-adv-x="871" 
d="M252 516v-422h360v422h120v-422h84v-193h-114v99h-570v516h120z" />
    <glyph glyph-name="afii10041" unicode="&#x427;" horiz-adv-x="743" 
d="M169 192q-5 0 -16 0.5t-24 3t-26 7t-23 13.5t-15.5 20t-8 22t-3 20t-0.5 14v224h116v-189q0 -6 1.5 -15.5t11.5 -17.5q11 -8 41 -8h268v230h120v-516h-120v192h-322z" />
    <glyph glyph-name="afii10042" unicode="&#x428;" horiz-adv-x="1110" 
d="M252 516v-422h243v422h120v-422h243v422h120v-516h-846v516h120z" />
    <glyph glyph-name="afii10043" unicode="&#x429;" horiz-adv-x="1117" 
d="M252 516v-422h243v422h120v-422h243v422h120v-422h84v-193h-114v99h-816v516h120z" />
    <glyph glyph-name="afii10044" unicode="&#x42a;" horiz-adv-x="784" 
d="M286 245v-151h254q9 0 23.5 1.5t23.5 9.5q11 9 11 31v65q0 7 -2 17t-11 18q-7 6 -18.5 7.5t-19.5 1.5h-261zM286 329h275q14 0 31 0.5t34.5 -2t34 -9.5t29.5 -21q8 -8 16 -24.5t8 -42.5v-129q0 -12 -4.5 -32.5t-26.5 -38.5q-12 -11 -28.5 -17t-33 -9t-32.5 -3.5t-27 -0.5
h-396v422h-141v94h261v-187z" />
    <glyph glyph-name="afii10045" unicode="&#x42b;" horiz-adv-x="1066" 
d="M814 516h120v-516h-120v516zM252 245v-151h254q9 0 23.5 1.5t23.5 9.5q11 9 11 31v65q0 7 -2 17t-11 18q-7 6 -18.5 7.5t-19.5 1.5h-261zM252 329h275q14 0 31 0.5t34.5 -2t34 -9.5t29.5 -21q8 -8 16 -24.5t8 -42.5v-129q0 -12 -4.5 -32.5t-26.5 -38.5q-12 -11 -28.5 -17
t-33 -9t-32.5 -3.5t-27 -0.5h-396v516h120v-187z" />
    <glyph glyph-name="afii10046" unicode="&#x42c;" horiz-adv-x="768" 
d="M252 245v-151h272q9 0 23.5 1.5t23.5 9.5q11 9 11 31v65q0 7 -2 17t-11 18q-7 6 -18.5 7.5t-19.5 1.5h-279zM252 329h293q14 0 31 0.5t34.5 -2t34 -9.5t29.5 -21q8 -8 16 -24.5t8 -42.5v-129q0 -12 -4.5 -32.5t-26.5 -38.5q-12 -11 -28.5 -17t-33 -9t-32.5 -3.5t-27 -0.5
h-414v516h120v-187z" />
    <glyph glyph-name="afii10047" unicode="&#x42d;" horiz-adv-x="780" 
d="M236 358l-120 19v17q0 8 0.5 20.5t3 26t8 27t16.5 23.5q19 18 47 21.5t53 3.5h308q25 0 53 -3.5t47 -21.5q10 -10 16 -23.5t8.5 -27t3 -26t0.5 -20.5v-272q0 -8 -0.5 -20.5t-3 -26t-8.5 -27t-16 -23.5q-19 -18 -47 -21.5t-53 -3.5h-308q-25 0 -53 3.5t-47 21.5
q-11 10 -16.5 23.5t-8 27t-3 26t-0.5 20.5v29l120 25v-82h324v131h-238v84h238v123h-324v-74z" />
    <glyph glyph-name="afii10048" unicode="&#x42e;" horiz-adv-x="1131" 
d="M890 94v328h-382v-328h382zM392 394q0 8 0.5 20.5t3 26t8 27t16.5 23.5q19 18 47 21.5t53 3.5h362q25 0 53 -3.5t47 -21.5q10 -10 16 -23.5t8.5 -27t3 -26t0.5 -20.5v-272q0 -8 -0.5 -20.5t-3 -26t-8.5 -27t-16 -23.5q-19 -18 -47 -21.5t-53 -3.5h-362q-25 0 -53 3.5
t-47 21.5q-11 10 -16.5 23.5t-8 27t-3 26t-0.5 20.5v100h-140v-222h-120v516h120v-200h140v78z" />
    <glyph glyph-name="afii10049" unicode="&#x42f;" horiz-adv-x="794" 
d="M267 428q-4 0 -15.5 -1t-19.5 -7q-10 -8 -11.5 -17.5t-1.5 -15.5v-63q0 -6 1.5 -15.5t11.5 -17.5q7 -5 17 -6.5t16 -1.5h277v145h-275zM542 0v195h-113l-187 -195h-172l215 195h-66q-17 0 -43.5 3.5t-44.5 19.5q-11 9 -19.5 27t-8.5 48v123q0 8 1 18t4 20.5t9 21t17 19.5
q18 14 42.5 17.5t42.5 3.5h443v-516h-120z" />
    <glyph glyph-name="afii10065" unicode="&#x430;" horiz-adv-x="646" 
d="M425 168l-99 176l-100 -176h199zM380 423l255 -423h-116l-53 93h-280l-53 -93h-103l251 423h99z" />
    <glyph glyph-name="afii10066" unicode="&#x431;" horiz-adv-x="657" 
d="M196 184v-109h230q11 0 21.5 1.5t17.5 7.5t8.5 13t1.5 14v38q0 6 -1.5 13t-8.5 13q-8 7 -18 8t-18 1h-233zM553 423v-75h-357v-94h262q24 0 50 -2t47 -23q8 -8 15 -21.5t7 -34.5v-90q0 -17 -8 -36.5t-39 -33.5q-13 -5 -32.5 -9t-51.5 -4h-352v423h459z" />
    <glyph glyph-name="afii10067" unicode="&#x432;" horiz-adv-x="657" 
d="M196 353v-100h230q29 0 38 8q5 5 6.5 10t1.5 12v40q0 4 -1.5 11t-7.5 12q-2 2 -9.5 4.5t-27.5 2.5h-230zM196 75h233q11 0 20.5 2t15.5 7q7 6 8.5 14t1.5 15v32q0 7 -1.5 15t-8.5 14q-5 5 -14 7t-24 2h-231v-108zM474 423q17 0 39.5 -3.5t38.5 -17.5q15 -14 18.5 -31
t3.5 -30v-51q0 -19 -6.5 -31t-13.5 -18q-9 -8 -23 -14.5t-29 -8.5q24 -3 37.5 -13t15.5 -12q8 -8 15 -22t7 -34v-54q0 -12 -5.5 -30t-28.5 -33q-21 -14 -47 -17t-43 -3h-359v423h380z" />
    <glyph glyph-name="afii10068" unicode="&#x433;" horiz-adv-x="548" 
d="M541 423v-80h-345v-343h-102v423h447z" />
    <glyph glyph-name="afii10069" unicode="&#x434;" horiz-adv-x="616" 
d="M306 332l-135 -257h277zM361 423l194 -348h50v-169h-94v94h-392v-94h-94v169h50l187 348h99z" />
    <glyph glyph-name="afii10070" unicode="&#x435;" horiz-adv-x="608" 
d="M548 423v-75h-352v-91h206v-75h-206v-102h357v-80h-459v423h454z" />
    <glyph glyph-name="afii10072" unicode="&#x436;" horiz-adv-x="816" 
d="M459 233l189 190h120l-208 -196l241 -227h-134l-208 207v-207h-102v207l-208 -207h-134l241 227l-208 196h120l189 -190v190h102v-190z" />
    <glyph glyph-name="afii10073" unicode="&#x437;" horiz-adv-x="645" 
d="M182 290l-102 15v25q0 30 7.5 47.5t16.5 25.5q13 11 35.5 15.5t43.5 4.5h288q20 0 38 -4.5t29 -14.5q16 -13 20 -29.5t4 -33.5v-51q0 -18 -6.5 -30.5t-13.5 -18.5q-9 -9 -23.5 -15t-28.5 -8q15 -2 29 -8.5t24 -16.5q8 -8 15 -21.5t7 -34.5v-54q0 -17 -8 -36.5t-39 -33.5
q-13 -5 -32.5 -9t-51.5 -4h-248q-7 0 -19 0.5t-25.5 2.5t-26 7.5t-21.5 14.5q-11 12 -15 31.5t-4 36.5v32l102 21v-71h237q11 0 21.5 1.5t17.5 7.5t8.5 13t1.5 14v37q0 6 -1.5 13t-8.5 13t-17 7.5t-19 1.5h-159v70h163q16 0 22.5 3t7.5 4q6 5 7.5 12t1.5 11v40q0 6 -1.5 12
t-7.5 11q-5 3 -12.5 5t-23.5 2h-233v-63z" />
    <glyph glyph-name="afii10074" unicode="&#x438;" horiz-adv-x="738" 
d="M196 423v-308l365 308h82v-423h-102v308l-365 -308h-82v423h102z" />
    <glyph glyph-name="afii10075" unicode="&#x439;" horiz-adv-x="737" 
d="M512 616q1 -22 -5.5 -45.5t-20.5 -40.5q-22 -26 -55.5 -32.5t-62.5 -6.5t-62.5 6.5t-55.5 32.5q-14 17 -20.5 40.5t-5.5 45.5h75q0 -8 2.5 -19t10.5 -19q11 -13 28 -15.5t28 -2.5t28 2.5t28 15.5q8 8 10.5 19t2.5 19h75zM196 423v-308l365 308h82v-423h-102v308
l-365 -308h-82v423h102z" />
    <glyph glyph-name="afii10076" unicode="&#x43a;" horiz-adv-x="618" 
d="M196 252l247 171h149l-292 -196l325 -227h-163l-266 191v-191h-102v423h102v-171z" />
    <glyph glyph-name="afii10077" unicode="&#x43b;" horiz-adv-x="597" 
d="M346 423l240 -423h-120l-174 336l-174 -336h-107l236 423h99z" />
    <glyph glyph-name="afii10078" unicode="&#x43c;" horiz-adv-x="767" 
d="M384 172l206 251h83v-423h-96v291l-189 -240h-20l-191 233v-284h-83v423h83z" />
    <glyph glyph-name="afii10079" unicode="&#x43d;" horiz-adv-x="718" 
d="M196 262h325v161h102v-423h-102v178h-325v-178h-102v423h102v-161z" />
    <glyph glyph-name="afii10080" unicode="&#x43e;" horiz-adv-x="715" 
d="M529 80v263h-343v-263h343zM84 323q0 6 0.5 16.5t2.5 22t6.5 22.5t13.5 19q21 20 83 20h331q7 0 19 -0.5t24.5 -2.5t24.5 -6.5t21 -12.5q8 -8 12 -18.5t6 -21.5t2.5 -21t0.5 -17v-228q0 -15 -3.5 -36t-17.5 -36q-16 -17 -41.5 -20t-47.5 -3h-327q-31 0 -54 5t-35 17
q-8 8 -12 19t-6 22t-2.5 21t-0.5 16v223z" />
    <glyph glyph-name="afii10081" unicode="&#x43f;" horiz-adv-x="708" 
d="M613 423v-423h-102v339h-315v-339h-102v423h519z" />
    <glyph glyph-name="afii10082" unicode="&#x440;" horiz-adv-x="628" 
d="M196 239h241q6 0 15 1.5t16 6.5t8.5 11.5t1.5 14.5v41q0 6 -1.5 13t-7.5 12q-8 7 -18.5 8t-19.5 1h-235v-109zM475 423q35 0 55 -8t29.5 -20t12 -26.5t2.5 -27.5v-95q0 -15 -4 -32.5t-20 -30.5t-37.5 -16t-37.5 -3h-279v-164h-102v423h381z" />
    <glyph glyph-name="afii10083" unicode="&#x441;" horiz-adv-x="644" 
d="M569 100q0 -20 -3.5 -42.5t-20.5 -37.5q-10 -9 -30 -14.5t-57 -5.5h-264q-26 0 -49.5 4t-37.5 17q-16 15 -19.5 37t-3.5 42v223q0 20 3.5 42.5t20.5 37.5q23 20 86 20h264q37 0 57 -5.5t30 -14.5q17 -15 20.5 -37.5t3.5 -42.5v-43l-102 -15v78h-281v-263h281v90l102 -21
v-49z" />
    <glyph glyph-name="afii10084" unicode="&#x442;" horiz-adv-x="590" 
d="M346 0h-102v348h-205v75h512v-75h-205v-348z" />
    <glyph glyph-name="afii10085" unicode="&#x443;" horiz-adv-x="684" 
d="M185 80h302v93h-293q-42 0 -60.5 6.5t-26.5 13.5q-11 10 -17.5 29t-6.5 42v159h102v-175h302v175h102v-323q0 -20 -3 -42t-20 -37q-14 -13 -37.5 -17t-49.5 -4h-285q-42 0 -60.5 6.5t-26.5 13.5q-9 8 -16.5 25.5t-7.5 47.5v23l102 17v-53z" />
    <glyph glyph-name="afii10086" unicode="&#x444;" horiz-adv-x="816" 
d="M194 316q-8 0 -17 -1t-16 -6q-8 -5 -9.5 -12.5t-1.5 -14.5v-108q0 -7 1.5 -14.5t9.5 -12.5q7 -5 18 -6t18 -1h160v176h-163zM459 316v-176h160q7 0 18 1t18 6q8 5 9.5 12.5t1.5 14.5v108q0 7 -1.5 14.5t-9.5 12.5q-7 5 -16 6t-17 1h-163zM459 386h202q16 0 40.5 -3
t41.5 -20q13 -13 16 -29t3 -30v-152q0 -15 -4 -32.5t-21 -31.5q-16 -13 -38 -15.5t-42 -2.5h-198v-70h-102v70h-198q-20 0 -42 2.5t-38 15.5q-17 14 -21 31.5t-4 32.5v152q0 14 3 30t16 29q17 17 41.5 20t40.5 3h202v63h102v-63z" />
    <glyph glyph-name="afii10087" unicode="&#x445;" horiz-adv-x="638" 
d="M580 423l-193 -194l238 -229h-141l-162 158l-149 -158h-122l209 217l-213 206h138l142 -137l134 137h119z" />
    <glyph glyph-name="afii10088" unicode="&#x446;" horiz-adv-x="695" 
d="M196 423v-343h309v343h102v-343h63v-174h-94v94h-482v423h102z" />
    <glyph glyph-name="afii10089" unicode="&#x447;" horiz-adv-x="644" 
d="M550 423v-423h-102v154h-279q-16 0 -37.5 3t-37.5 16t-20 30.5t-4 32.5v187h96v-155q0 -8 1.5 -14.5t8.5 -11.5t16 -6.5t15 -1.5h241v189h102z" />
    <glyph glyph-name="afii10090" unicode="&#x448;" horiz-adv-x="877" 
d="M196 423v-343h191v343h102v-343h191v343h102v-423h-688v423h102z" />
    <glyph glyph-name="afii10091" unicode="&#x449;" horiz-adv-x="870" 
d="M196 423v-343h191v343h102v-343h191v343h102v-343h63v-174h-94v94h-657v423h102z" />
    <glyph glyph-name="afii10092" unicode="&#x44a;" horiz-adv-x="664" 
d="M250 200v-125h215q11 0 21.5 1.5t17.5 7.5t8.5 13t1.5 14v54q0 6 -1.5 13t-8.5 13q-8 7 -18 8t-18 1h-218zM491 270q24 0 50 -2t47 -23q8 -8 15 -21.5t7 -34.5v-106q0 -17 -8 -36.5t-39 -33.5q-13 -5 -32.5 -9t-51.5 -4h-331v343h-128v80h230v-153h241z" />
    <glyph glyph-name="afii10093" unicode="&#x44b;" horiz-adv-x="864" 
d="M668 423h102v-423h-102v423zM196 200v-125h215q11 0 21.5 1.5t17.5 7.5t8.5 13t1.5 14v54q0 6 -1.5 13t-8.5 13q-8 7 -18 8t-18 1h-218zM196 270h241q24 0 50 -2t47 -23q8 -8 15 -21.5t7 -34.5v-106q0 -17 -8 -36.5t-39 -33.5q-13 -5 -32.5 -9t-51.5 -4h-331v423h102
v-153z" />
    <glyph glyph-name="afii10094" unicode="&#x44c;" horiz-adv-x="631" 
d="M196 200v-125h236q11 0 21.5 1.5t17.5 7.5t8.5 13t1.5 14v54q0 6 -1.5 13t-8.5 13q-8 7 -18 8t-18 1h-239zM196 270h262q24 0 50 -2t47 -23q8 -8 15 -21.5t7 -34.5v-106q0 -17 -8 -36.5t-39 -33.5q-13 -5 -32.5 -9t-51.5 -4h-352v423h102v-153z" />
    <glyph glyph-name="afii10095" unicode="&#x44d;" horiz-adv-x="649" 
d="M186 142v-67h281v107h-204v71h204v100h-281v-60l-102 15v15q0 20 3.5 42.5t20.5 37.5q10 9 30 14.5t57 5.5h264q63 0 86 -20q17 -15 20.5 -37.5t3.5 -42.5v-223q0 -20 -3.5 -42t-19.5 -37q-14 -13 -37.5 -17t-49.5 -4h-264q-37 0 -57 5.5t-30 14.5q-17 15 -20.5 37.5
t-3.5 42.5v21z" />
    <glyph glyph-name="afii10096" unicode="&#x44e;" horiz-adv-x="934" 
d="M748 80v263h-331v-263h331zM321 323q0 6 0.5 16.5t2.5 22t6.5 22.5t13.5 19q21 20 83 20h313q7 0 19 -0.5t24.5 -2.5t24.5 -6.5t21 -12.5q8 -8 12 -18.5t6 -21.5t2.5 -21t0.5 -17v-228q0 -15 -3.5 -36t-17.5 -36q-16 -17 -41.5 -20t-47.5 -3h-309q-31 0 -54 5t-35 17
q-8 8 -12 19t-6 22t-2.5 21t-0.5 16v80h-125v-180h-102v423h102v-163h125v63z" />
    <glyph glyph-name="afii10097" unicode="&#x44f;" horiz-adv-x="646" 
d="M213 348q-8 0 -18 -1.5t-17 -6.5q-8 -6 -9 -13.5t-1 -12.5v-47q0 -7 1.5 -14.5t9.5 -12.5q3 -2 11 -4.5t25 -2.5h235v115h-237zM450 0v158h-99l-162 -158h-144l182 158h-56q-17 0 -37 3.5t-34 12.5q-20 14 -24 32.5t-4 32.5v102q0 14 4 32t21 32q8 7 25 12.5t49 5.5h381
v-423h-102z" />
    <glyph glyph-name="afii10071" unicode="&#x451;" horiz-adv-x="608" 
d="M383 613h100v-112h-100v112zM164 613h100v-112h-100v112zM548 423v-75h-352v-91h206v-75h-206v-102h357v-80h-459v423h454z" />
    <glyph glyph-name="afii10099" unicode="&#x452;" horiz-adv-x="748" 
d="M303 253h271q16 0 37.5 -3t37.5 -16t20 -30.5t4 -32.5v-89q0 -15 -4 -32.5t-20 -30.5t-37.5 -16t-37.5 -3h-147v75h109q6 0 15 1.5t16 6.5t8.5 11.5t1.5 14.5v35q0 8 -1.5 14.5t-8.5 11.5t-16 6.5t-15 1.5h-233v-178h-102v348h-181v75h512v-75h-229v-95z" />
    <glyph glyph-name="afii10100" unicode="&#x453;" horiz-adv-x="548" 
d="M302 647h108l-144 -169h-64zM541 423v-80h-345v-343h-102v423h447z" />
    <glyph glyph-name="afii10101" unicode="&#x454;" horiz-adv-x="649" 
d="M569 100q0 -20 -3.5 -42.5t-20.5 -37.5q-10 -9 -30 -14.5t-57 -5.5h-264q-26 0 -49.5 4t-37.5 17q-16 15 -19.5 37t-3.5 42v223q0 20 3.5 42.5t20.5 37.5q23 20 86 20h264q37 0 57 -5.5t30 -14.5q17 -15 20.5 -37.5t3.5 -42.5v-15l-102 -15v60h-281v-100h204v-71h-204
v-107h281v67l102 -21v-21z" />
    <glyph glyph-name="afii10102" unicode="&#x455;" horiz-adv-x="665" 
d="M195 348v-91h276q66 0 87 -20q17 -15 20 -37.5t3 -42.5v-57q0 -20 -3 -42t-20 -37q-14 -13 -37.5 -17t-49.5 -4h-277q-42 0 -60.5 6.5t-26.5 13.5q-9 8 -16.5 25.5t-7.5 47.5v20l94 17v-50h308v97h-275q-42 0 -60.5 6.5t-26.5 13.5q-11 10 -17.5 29t-6.5 42v59
q0 6 0.5 15.5t3 20.5t7 21.5t13.5 18.5q15 14 39.5 17t47.5 3h264q35 0 53 -7.5t26 -15.5q14 -14 17.5 -33.5t3.5 -35.5v-9l-89 -19v45h-290z" />
    <glyph glyph-name="afii10103" unicode="&#x456;" horiz-adv-x="290" 
d="M94 423h102v-423h-102v423z" />
    <glyph glyph-name="afii10104" unicode="&#x457;" horiz-adv-x="290" 
d="M178 613h100v-112h-100v112zM12 613h100v-112h-100v112zM196 0h-102v423h102v-423z" />
    <glyph glyph-name="afii10105" unicode="&#x458;" horiz-adv-x="560" 
d="M166 0q-31 0 -53.5 5t-35.5 17q-15 15 -18.5 38t-3.5 40v88l102 19v-127h206v343h102v-323q0 -16 -4 -40.5t-20 -39.5q-10 -9 -30 -14.5t-57 -5.5h-188z" />
    <glyph glyph-name="afii10106" unicode="&#x459;" horiz-adv-x="981" 
d="M545 270h262q24 0 50 -2t47 -23q8 -8 15 -21.5t7 -34.5v-106q0 -17 -8 -36.5t-39 -33.5q-13 -5 -32.5 -9t-51.5 -4h-352v348h-18l-297 -348h-117l371 423h163v-153zM545 200v-125h236q11 0 21.5 1.5t17.5 7.5t8.5 13t1.5 14v54q0 6 -1.5 13t-8.5 13q-8 7 -18 8t-18 1
h-239z" />
    <glyph glyph-name="afii10107" unicode="&#x45a;" horiz-adv-x="1058" 
d="M623 200v-125h236q11 0 21.5 1.5t17.5 7.5t8.5 13t1.5 14v54q0 6 -1.5 13t-8.5 13q-8 7 -18 8t-18 1h-239zM885 270q24 0 50 -2t47 -23q8 -8 15 -21.5t7 -34.5v-106q0 -17 -8 -36.5t-39 -33.5q-13 -5 -32.5 -9t-51.5 -4h-352v190h-325v-190h-102v423h102v-153h325v153
h102v-153h262z" />
    <glyph glyph-name="afii10108" unicode="&#x45b;" horiz-adv-x="748" 
d="M303 253h271q16 0 37.5 -3t37.5 -16t20 -30.5t4 -32.5v-171h-96v144q0 8 -1.5 14.5t-8.5 11.5t-16 6.5t-15 1.5h-233v-178h-102v348h-181v75h512v-75h-229v-95z" />
    <glyph glyph-name="afii10109" unicode="&#x45c;" horiz-adv-x="618" 
d="M337 647h108l-144 -169h-64zM196 252l247 171h149l-292 -196l325 -227h-163l-266 191v-191h-102v423h102v-171z" />
    <glyph glyph-name="afii10110" unicode="&#x45e;" horiz-adv-x="684" 
d="M486 616q1 -22 -5.5 -45.5t-20.5 -40.5q-22 -26 -55.5 -32.5t-62.5 -6.5t-62.5 6.5t-55.5 32.5q-14 17 -20.5 40.5t-5.5 45.5h75q0 -8 2.5 -19t10.5 -19q11 -13 28 -15.5t28 -2.5t28 2.5t28 15.5q8 8 10.5 19t2.5 19h75zM185 80h302v93h-293q-42 0 -60.5 6.5t-26.5 13.5
q-11 10 -17.5 29t-6.5 42v159h102v-175h302v175h102v-323q0 -20 -3 -42t-20 -37q-14 -13 -37.5 -17t-49.5 -4h-285q-42 0 -60.5 6.5t-26.5 13.5q-9 8 -16.5 25.5t-7.5 47.5v23l102 17v-53z" />
    <glyph glyph-name="afii10193" unicode="&#x45f;" horiz-adv-x="708" 
d="M196 423v-339h316v339h102v-423h-213v-94h-94v94h-213v423h102z" />
    <glyph glyph-name="afii10050" unicode="&#x490;" horiz-adv-x="635" 
d="M132 516h376v86h110v-180h-366v-422h-120v516z" />
    <glyph glyph-name="afii10098" unicode="&#x491;" horiz-adv-x="548" 
d="M94 423h353v66h94v-146h-345v-343h-102v423z" />
    <glyph glyph-name="endash" unicode="&#x2013;" 
d="M0 301h500v-70h-500v70z" />
    <glyph glyph-name="emdash" unicode="&#x2014;" horiz-adv-x="1000" 
d="M1000 301v-70h-1000v70h1000z" />
    <glyph glyph-name="quoteleft" unicode="&#x2018;" horiz-adv-x="331" 
d="M111 228q-5 0 -10 0.5t-10 5.5t-6 14.5t-1 16.5v103l99 148h59l-85 -152h57q5 0 11.5 -2t9.5 -10q2 -4 2.5 -11.5t0.5 -13.5v-62q0 -14 -1.5 -20.5t-3.5 -9.5q-5 -6 -16.5 -6.5t-19.5 -0.5h-86z" />
    <glyph glyph-name="quoteright" unicode="&#x2019;" horiz-adv-x="374" 
d="M215 516q5 0 10 -0.5t10 -5.5t6 -14.5t1 -16.5v-103l-99 -148h-59l85 152h-57q-5 0 -11.5 2t-9.5 10q-2 4 -2.5 11.5t-0.5 13.5v62q0 14 1.5 20.5t3.5 9.5q5 6 16.5 6.5t19.5 0.5h86z" />
    <glyph glyph-name="quotedblleft" unicode="&#x201c;" horiz-adv-x="579" 
d="M111 228q-5 0 -10 0.5t-10 5.5t-6 14.5t-1 16.5v103l99 148h59l-85 -152h57q5 0 11.5 -2t9.5 -10q2 -4 2.5 -11.5t0.5 -13.5v-62q0 -14 -1.5 -20.5t-3.5 -9.5q-5 -6 -16.5 -6.5t-19.5 -0.5h-86zM359 228q-5 0 -10 0.5t-10 5.5t-6 14.5t-1 16.5v103l99 148h59l-85 -152h57
q5 0 11.5 -2t9.5 -10q2 -4 2.5 -11.5t0.5 -13.5v-62q0 -14 -1.5 -20.5t-3.5 -9.5q-5 -6 -16.5 -6.5t-19.5 -0.5h-86z" />
    <glyph glyph-name="quotedblright" unicode="&#x201d;" horiz-adv-x="579" 
d="M463 516q5 0 10 -0.5t10 -5.5t6 -14.5t1 -16.5v-103l-99 -148h-59l85 152h-57q-5 0 -11.5 2t-9.5 10q-2 4 -2.5 11.5t-0.5 13.5v62q0 14 1.5 20.5t3.5 9.5q5 6 16.5 6.5t19.5 0.5h86zM215 516q5 0 10 -0.5t10 -5.5t6 -14.5t1 -16.5v-103l-99 -148h-59l85 152h-57
q-5 0 -11.5 2t-9.5 10q-2 4 -2.5 11.5t-0.5 13.5v62q0 14 1.5 20.5t3.5 9.5q5 6 16.5 6.5t19.5 0.5h86z" />
    <glyph glyph-name="quotedblbase" unicode="&#x201e;" horiz-adv-x="579" 
d="M463 155q5 0 10 -0.5t10 -5.5t6 -14.5t1 -16.5v-103l-99 -148h-59l85 152h-57q-5 0 -11.5 2t-9.5 10q-2 4 -2.5 11.5t-0.5 13.5v62q0 14 1.5 20.5t3.5 9.5q5 6 16.5 6.5t19.5 0.5h86zM215 155q5 0 10 -0.5t10 -5.5t6 -14.5t1 -16.5v-103l-99 -148h-59l85 152h-57
q-5 0 -11.5 2t-9.5 10q-2 4 -2.5 11.5t-0.5 13.5v62q0 14 1.5 20.5t3.5 9.5q5 6 16.5 6.5t19.5 0.5h86z" />
    <glyph glyph-name="dagger" unicode="&#x2020;" 
d="M236 -106q-2 68 -11 141.5t-29 149.5q16 42 25.5 74t14.5 58l-165 -37v106l165 -35l-40 165h108l-41 -165l165 35v-106l-165 37q10 -45 21 -77t20 -55q-10 -38 -23 -111.5t-18 -179.5h-27z" />
    <glyph glyph-name="bullet" unicode="&#x2022;" horiz-adv-x="589" 
d="M150 372q0 30 11 56t30.5 45.5t46 31t56.5 11.5t56 -11.5t45.5 -31t31 -45.5t11.5 -56t-11.5 -56.5t-31 -46t-45.5 -30.5t-56 -11t-56.5 11t-46 30.5t-30.5 46t-11 56.5z" />
    <glyph glyph-name="ellipsis" unicode="&#x2026;" horiz-adv-x="1000" 
d="M794 155q5 0 10 -1t10 -6t5.5 -14.5t0.5 -13.5v-85q0 -8 -1 -16.5t-7 -13.5q-4 -3 -10 -4t-14 -1h-98q-5 0 -11 2t-10 10q-2 5 -2.5 12.5t-0.5 12.5v81q0 6 0.5 16.5t7.5 15.5q5 4 12.5 4.5t15.5 0.5h92zM460 155q5 0 10 -1t10 -6t5.5 -14.5t0.5 -13.5v-85q0 -8 -1 -16.5
t-7 -13.5q-4 -3 -10 -4t-14 -1h-98q-5 0 -11 2t-10 10q-2 5 -2.5 12.5t-0.5 12.5v81q0 6 0.5 16.5t7.5 15.5q5 4 12.5 4.5t15.5 0.5h92zM126 155q5 0 10 -1t10 -6t5.5 -14.5t0.5 -13.5v-85q0 -8 -1 -16.5t-7 -13.5q-4 -3 -10 -4t-14 -1h-98q-5 0 -11 2t-10 10
q-2 5 -2.5 12.5t-0.5 12.5v81q0 6 0.5 16.5t7.5 15.5q5 4 12.5 4.5t15.5 0.5h92z" />
    <glyph glyph-name="Euro" unicode="&#x20ac;" horiz-adv-x="773" 
d="M715 393q-30 20 -87 37t-138 17q-56 0 -98.5 -9t-73.5 -23.5t-50.5 -33.5t-28.5 -40h425l-38 -58h-404q-2 -8 -2 -21q0 -17 2 -25h374l-38 -59h-319q19 -46 82 -77t170 -31q81 0 136 17t88 37v-82q-23 -12 -83 -27t-149 -15q-141 0 -234 45t-121 133h-100l37 59h54
q-2 10 -2 25q0 13 2 21h-91l37 58h63q13 32 39 63.5t68.5 56.5t103.5 40.5t144 15.5q81 0 142 -14.5t90 -28.5v-81z" />
    <glyph glyph-name="afii61352" unicode="&#x2116;" horiz-adv-x="1208" 
d="M834 140h299v-58h-299v58zM1061 258v141h-155v-141h155zM834 381q0 31 8 46.5t20 22t25 7t23 0.5h148q15 0 28.5 -1.5t24 -9t16.5 -22.5t6 -43v-104q0 -15 -1.5 -28.5t-9 -24.5t-22.5 -17.5t-42 -6.5h-148q-14 0 -28 2t-24.5 9.5t-17 23t-6.5 42.5v104zM131 516h82
l363 -304q6 -5 10 -8t9.5 -7.5t14 -13.5l25.5 -27l-5 89v271h108v-516h-82l-379 319q-2 2 -16 14.5t-27 27.5l3 -42q0 -3 0.5 -6.5t0.5 -6.5q1 -10 1 -15v-12v-279h-108v516z" />
    <glyph glyph-name="trademark" unicode="&#x2122;" horiz-adv-x="1019" 
d="M740 298l103 218h106v-322h-71v257l-117 -257h-42l-123 257v-257h-70v322h106zM441 459h-122v-265h-79v265h-123v57h324v-57z" />
    <glyph glyph-name="radical" unicode="&#x221a;" horiz-adv-x="507" 
d="M425 560h72v-44h-33l-166 -642h-50l-170 500h-33v50h99l140 -412z" />
    <glyph glyph-name="infinity" unicode="&#x221e;" horiz-adv-x="858" 
d="M561 354q-39 0 -62 -25.5t-29 -56.5q7 -34 30.5 -58t60.5 -24q20 0 36 7t27 19q8 9 14 23.5t6 28.5q0 16 -4.5 33t-17.5 30q-23 23 -61 23zM214 272q0 -14 4.5 -28t12.5 -24q7 -9 22.5 -19.5t43.5 -10.5q41 0 63.5 25t28.5 57q-7 35 -30.5 58.5t-61.5 23.5q-33 0 -57 -21
q-26 -23 -26 -61zM430 172q-24 -33 -59.5 -50.5t-73.5 -17.5q-35 0 -65 11t-52 30q-24 20 -40 52.5t-16 74.5q0 40 15.5 72.5t41.5 54.5q24 20 55.5 30.5t60.5 10.5q35 0 69 -15.5t63 -52.5q27 33 58.5 50.5t73.5 17.5q38 0 69 -12t53 -32q21 -19 36 -50t15 -76
q0 -63 -36 -107q-22 -27 -56 -43t-78 -16q-49 0 -81.5 20t-52.5 48z" />
    <glyph glyph-name="approxequal" unicode="&#x2248;" horiz-adv-x="832" 
d="M708 195q-10 -8 -27.5 -20t-39.5 -22.5t-47.5 -18t-52.5 -7.5q-17 0 -34 3.5t-32 8t-27 9t-18 7.5l-21 9q-38 16 -69 22.5t-51 6.5q-27 0 -52.5 -9t-48 -21t-39 -25t-25.5 -20v71q10 8 27.5 20t39.5 23t47.5 18.5t52.5 7.5q40 0 72.5 -11t52.5 -19l20 -8q37 -14 58.5 -21
t46.5 -7q26 0 50.5 7.5t46 18.5t39.5 24t31 24v-71zM708 408q-10 -8 -27.5 -20t-39.5 -22.5t-47.5 -18t-52.5 -7.5q-19 0 -45.5 6t-65.5 22l-22 9q-29 12 -58 20.5t-60 8.5q-25 0 -49 -7.5t-45.5 -18.5t-40 -24t-31.5 -25v71q10 8 27.5 20t39.5 23t47.5 18.5t52.5 7.5
q38 0 71.5 -11t53.5 -19l20 -8q37 -14 58.5 -21t46.5 -7q26 0 50.5 7.5t46 18.5t39.5 24t31 24v-71z" />
    <glyph glyph-name="notequal" unicode="&#x2260;" horiz-adv-x="833" 
d="M709 361h-228l-59 -126h287v-68h-319l-60 -127h-70l60 127h-196v68h228l59 126h-287v68h319l60 127h70l-60 -127h196v-68z" />
    <glyph glyph-name="lessequal" unicode="&#x2264;" horiz-adv-x="775" 
d="M646 -5l-517 212v67l517 -212v-67zM221 361l425 -173v-67l-517 212v57l517 212v-67z" />
    <glyph glyph-name="greaterequal" unicode="&#x2265;" horiz-adv-x="775" 
d="M646 274v-67l-517 -212v67zM129 602l517 -212v-57l-517 -212v67l425 173l-425 174v67z" />
    <glyph glyph-name="Acute" unicode="&#xf6c9;" horiz-adv-x="524" 
d="M290 697h124l-165 -136h-71z" />
    <glyph glyph-name="Dieresis" unicode="&#xf6cb;" horiz-adv-x="526" 
d="M299 688h110v-112h-110v112zM117 688h110v-112h-110v112z" />
    <glyph glyph-name="cyrBreve" unicode="&#xf6d1;" horiz-adv-x="590" 
d="M458 705q4 -30 -5 -56t-25 -44q-26 -29 -62 -36.5t-71 -7.5t-71 7.5t-62 36.5q-16 18 -25 44t-5 56h80q-1 -13 3 -25.5t12 -20.5q9 -9 25.5 -14.5t42.5 -5.5t42.5 5.5t25.5 14.5q8 8 12 20.5t3 25.5h80z" />
    <glyph glyph-name="cyrbreve" unicode="&#xf6d4;" horiz-adv-x="476" 
d="M382 616q1 -22 -5.5 -45.5t-20.5 -40.5q-22 -26 -55.5 -32.5t-62.5 -6.5t-62.5 6.5t-55.5 32.5q-14 17 -20.5 40.5t-5.5 45.5h75q0 -8 2.5 -19t10.5 -19q11 -13 28 -15.5t28 -2.5t28 2.5t28 15.5q8 8 10.5 19t2.5 19h75z" />
    <glyph glyph-name="Delta" horiz-adv-x="686" 
d="M508 94l-172 322l-174 -322h346zM45 95l238 421h116l242 -422v-94h-596v95z" />
    <glyph glyph-name="nonbreakingspace" horiz-adv-x="233" 
 />
    </font>
</defs>
</svg>
