<svg xmlns="http://www.w3.org/2000/svg" viewBox="0 0 27 20"><path d="M26.667 0c-1.795 2.788-3.723 5.556-4.247 7.651-.337 1.35-.64 2.028.056 2.083 1.67.132 3.997 3.032 3.997 5.473a4.752 4.752 0 0 1-3.475 4.58c-5.768 1.122-7.776-2.558-7.845-6.682-.098-5.748 3.315-9.535 7.854-13.114zM11.516 0C9.72 2.788 7.793 5.565 7.269 7.66c-.337 1.35-.64 2.028.056 2.083 1.67.132 3.997 3.032 3.997 5.473a4.752 4.752 0 0 1-3.475 4.58C2.08 20.918.071 17.238.002 13.114-.096 7.366 3.317 3.579 7.856 0z" fill="#fffff9"/></svg>
