<?xml version="1.0" standalone="no"?>
<!DOCTYPE svg PUBLIC "-//W3C//DTD SVG 20010904//EN"
 "http://www.w3.org/TR/2001/REC-SVG-20010904/DTD/svg10.dtd">
<svg version="1.0" xmlns="http://www.w3.org/2000/svg"
 width="400.000000pt" height="400.000000pt" viewBox="0 0 400.000000 400.000000"
 preserveAspectRatio="xMidYMid meet">
<metadata>
Created by potrace 1.11, written by Peter Selinger 2001-2013
</metadata>
<g transform="translate(0.000000,400.000000) scale(0.100000,-0.100000)"
fill="#000000" stroke="none">
<path d="M348 2710 c-3 -13 -2 -1426 1 -1440 1 -7 360 -4 367 3 3 3 5 98 5
211 0 113 3 206 7 207 4 0 201 2 437 3 468 3 474 3 568 63 89 56 166 152 194
242 18 55 25 294 12 366 -9 51 -53 150 -76 173 -7 7 -18 21 -25 30 -45 61
-157 129 -243 147 -22 5 -311 9 -642 10 -533 1 -602 -1 -605 -15z m1201 -383
c19 -21 22 -35 22 -118 0 -52 -2 -101 -6 -109 -14 -38 -34 -40 -441 -41 -217
-1 -398 1 -400 4 -3 3 -5 13 -5 23 0 11 0 74 0 142 l0 122 404 0 404 0 22 -23z"/>
<path d="M2506 2722 c-2 -1 -29 -7 -62 -13 -131 -23 -288 -130 -339 -229 -73
-141 -68 -319 13 -444 76 -116 196 -188 352 -212 50 -7 249 -11 259 -4 8 5 15
24 86 230 18 52 36 102 39 110 6 13 -15 15 -161 15 -178 -1 -204 4 -240 42
-32 34 -29 69 7 103 l31 29 211 1 c117 0 213 2 215 4 2 2 30 79 62 172 33 93
62 176 65 184 5 13 -28 15 -265 15 -149 0 -272 -1 -273 -3z"/>
<path d="M3163 2719 c-10 -3 -37 -67 -74 -175 -32 -93 -59 -175 -59 -181 0
-10 62 -13 278 -13 l278 0 0 185 c0 102 -2 185 -5 186 -25 4 -405 3 -418 -2z"/>
<path d="M2936 2101 c-14 -42 -28 -83 -30 -91 -3 -8 -18 -53 -35 -100 -16 -46
-28 -87 -25 -89 3 -3 80 -6 172 -6 113 -1 175 -6 193 -14 49 -24 65 -95 29
-131 -25 -25 -5 -23 -248 -25 -112 -1 -207 -6 -212 -11 -8 -8 -56 -139 -65
-174 -2 -8 -11 -35 -20 -60 -9 -25 -23 -64 -30 -88 l-13 -43 285 2 c274 2 290
3 362 26 42 13 82 25 89 25 6 1 12 4 12 7 0 3 12 12 28 18 47 21 129 101 161
156 44 77 63 142 63 217 1 203 -141 378 -347 429 -84 21 -96 23 -221 25 l-121
2 -27 -75z"/>
<path d="M2128 1642 l-28 -3 0 -185 0 -184 224 0 224 0 61 183 c34 100 61 184
61 187 0 5 -497 7 -542 2z"/>
</g>
</svg>
